<?xml version="1.0" encoding="utf-8"?>
<!-- Generator: Adobe Illustrator 27.5.0, SVG Export Plug-In . SVG Version: 6.00 Build 0)  -->
<svg version="1.1" id="Layer_1" xmlns="http://www.w3.org/2000/svg" xmlns:xlink="http://www.w3.org/1999/xlink" x="0px" y="0px"
	 viewBox="0 0 266 452" style="enable-background:new 0 0 266 452;" xml:space="preserve">
<style type="text/css">
	.st0{fill-rule:evenodd;clip-rule:evenodd;}
</style>
<g>
	<path class="st0" d="M140.8,283.1c-6,6.1-11.7-2-9.5-7.3C134.6,268,146.8,277.8,140.8,283.1z M138.2,282.5
		c-1.3,0.4-2.6,0.6-3.9,0.2C135.2,283.7,137.2,283.9,138.2,282.5z M133.2,280.3c2.3,4,8.1-1.8,3.7-5
		C134.4,275,132.2,278.7,133.2,280.3z"/>
	<path class="st0" d="M119.5,287.4c-3.7,3.6-9.1,2.7-11.6-1.5c-2.5-4.3,1.7-10,6.9-9.8C120,276.3,123.4,283.6,119.5,287.4z
		 M117.1,285.5c0.1-2.2,0.8-4.4-1.6-6.9c-1.1-0.3-2.5,1.7-3.5,0.9c-0.2-0.5,0.7-0.8,0.7-1.2C105.3,280.5,111.9,290.6,117.1,285.5z"
		/>
	<g>
		<path class="st0" d="M113.8,449.1c-1.9-2.8-3.4-6.3-5.6-8.9c-5.4-6.1-18-6-27.3-16.5c-5.5-8.8-13.3-18.2-21.3-23.9
			c-3.6-2.6-12.4-7.2-17.1-8.2c5.2-10.6,19-19,28.1-22.6c9-4.2,17.9-4.1,26.8-5c-1.2-4.2-3.8-8.6-4.6-12.8
			c-5.3-13.4-9.2-26.8-10.6-40.1c-0.4-1.4-0.3-2.9-0.8-4.4c-0.1-26.1-0.8-52.3,0.9-78.4c-1.7-3.4-5-6.4-6.3-9.9
			c-3.2-8.9-1.3-17.8,4.2-26.4c1.9-1.2,2.4-3.1,2.6-4.3c0.6-2.9,2.1-5.8,2.1-8.8c0-6.4-1.9-12.8-3.5-19.1c-1.3-2.4-2-4.8-3-7.2
			c-4.6-7.6-10-14.9-15.4-22.5c-3-5.2-6.5-10.3-8-15.5c-2.3-7.8-3.8-15.7-4.3-23.5c-0.8-12.8,3.4-24.2,12-33.6
			C67.6,51.9,74,48,81.4,51c2.1,0.8,4.6,1.9,4.4,4.3c-0.4,1-1.4,1.2-2.2,1.7c-2.9-0.4-5.8-0.4-8.6,1.7c-19.5,15.1-10.7,60,5,74.9
			c-11-24.2-5.6-32.7,5.3-52.7c1.7-6.5,4.2-12.9,5-19.4c0.2-9,2.8-17.9-2.3-27.1C77.5,19.2,64.1,13.2,45,18.2
			C18.9,27.6,2.9,45.3,10.4,76.8c5.4,22.9,34.3,48.3,31.7,65.8c3.4,3.7,4.6,9.1-0.2,11.3c0.8,4.7,8.2,26.7-15.3,37.4
			c-9.6,3.3-14.5,11.5-13.7,21.2c-12.2-12.3-8.2-35.8,4.8-45.1c2.9-2.1,6.6-3.4,9.3-6c2.6-2.5,3.8-5.5,5.5-8.2
			c-2.6-4.3-3.7-8.7,0.9-12.7c-0.5-5.8-2.4-11.5-6-17.5c-5.6-8.9-14.3-17-18.7-26.1c-2-4.1-3.7-8.5-5.4-12.5
			C-7.4,55.1,5.6,22.3,41.7,9.7C60.8,4,82.3,6.9,94.4,24.2c28.3,37-18.8,77.2-5.8,103.3c-0.3,1.5,1.5,3.4,2.7,4.8
			c-2.1-13.7-2.9-28.9,13.1-41.1c0-4.9,0.4-11.8,7.4-14.8c3.8-0.5,1.4,4.9,1.1,7.3c-0.3,2.6-0.8,4.8-0.3,6.7
			c2.1,0.7,4.4,2.5,6.1,4.9c1.1-1.9,2.2-4.2,4.5-6.2c0.4-3.7-0.3-6.2-3.2-9.3c-1.2-3.8-0.4-4.9,2.6-5c3.7,0.8,6.9,7.8,8.2,10.3
			c8.1-2.2,18.9,8.3,21.2,17c2.5-11.3-8.4-22.3-17.3-33.3c-12.6-15.1-17.2-35.8-7.3-53.7c5.7-9.5,24-14.7,34.3-16.1
			c23.9-3.1,47,15.2,54.1,37.5c6,18.8,3,38.8-2,53.1c-5.2,14.8-12.1,29.4-9.4,44.4c5.7-0.3,10.1,6.6,7.3,11.4
			c4.6,4.3,8.9,10.2,14.1,12.9c10.1,4.4,20.3,3.3,30.9,8.2c3.1,1.4,11,6.9,8,10.2c-7.6-5.7-21.9,10.6-40.9,3.7
			c-13.2-4.8-25.1-18.1-21-32.8c-4.8-2.1-6.5-7.6-3.7-11.2c-1.4-17.4,5.7-34.9,10.2-49.6c7.2-23.3,3.6-51.1-15.4-68.4
			c-14.1-12.3-29.5-12-46.7-6c-0.2,0.2-0.1,0.4-0.4,0.5c-2.8,1-5.4,2.9-7.8,5.4c-12.5,13-9.8,29.9,0.9,44c4.9,6.6,11.4,12.5,15.4,19
			c5.9,11.8,6.3,23.5,4.1,35.1c2.2-2,2.8-5.3,5-7c1.1-1.4,1.3-2.9,2.5-4.3c3.4-7,4.4-14,4.4-21.1c-0.8-10.2-2.2-24.9-15.9-32.4
			c-1.7-0.4-3.5-0.9-5.3-0.8c-5.4,0.4-4.5,7-6.6,9.1c-2.2,2.1-3.7-0.3-4.7-2.2c-4.3-9.4,16.8-27.5,32.8-2.9
			c16.5,25,10.4,54.6-7.4,77.8c-5.5,10.4-11.5,17-10.5,30.4c0.4,4.5,1.7,11.1,6.8,12.9c0.7,1.7,3,2.3,4.4,3.6
			c13.7,12,14.3,33.4,0.3,45.1c-1.9,1.6-5.8,3-3.5,5.3c1.3,7.4,6.4,14.8,1.2,22.1c-1.9,13.8,0,32.2-3,48c-3.2,16.3-9.3,33.2-17,49.2
			c-1.8,3.5-3,6.6-4.7,10.3c-0.6,1.3-3.3,6.6-0.3,4.2c13.1-1.7,25.3,0.8,35.9,8.6c2.5,1.9,5.4,3.8,6.9,3.9c-1.2,1.5-2.9,1-4.4,1.8
			c-10.9,7.5-13.1,17.8-19.3,26.4c-4.1,7.1-8.8,15.3-16.4,21.1c-3.6,2.7-8.5,4.6-11.5,7.6c-5.7,5.8-6.4,9.5-7.5,14
			C121.1,453.9,115.4,452.7,113.8,449.1L113.8,449.1z M150,412.2c-8.4,6.7-17.2,12.8-25.8,16.4c-0.2,0.7-0.1,1.4,0.2,2.1
			c5.7-2.3,23-14.7,23.1-14.2C148.6,415.4,149.7,413.7,150,412.2L150,412.2z M151,410c0.4-1,1.1-2,1.2-3c-8.4,6.4-18,12.4-26.4,16.4
			c-1.7,0.9-2.5,1.6-1.6,3.5C133,424.1,142.1,417.8,151,410L151,410z M155.5,404.3c-0.5,0.3-1,1.1-0.9,1.8
			C154.8,405.4,155.6,404.9,155.5,404.3L155.5,404.3z M153.3,404.8c0.5-1.4,2.2-2.8,2.1-4.3c-8,6.8-18.1,12.4-26.2,16.3
			c-2.9,1.3-6.7,2.2-5,5.7C133.9,419.1,143.7,412.3,153.3,404.8L153.3,404.8z M156.7,397.9c0.7-1.8,1.9-3.6,2.5-5.3
			c-8.9,7.1-18.6,12.5-27.6,17.6c-3.5,2-8.9,2.9-7.3,7.3C135.1,414.2,146,406.5,156.7,397.9L156.7,397.9z M116.3,434.4
			c-0.2,0-0.3-0.1-0.4,0.2c0,0.4,0.4,0.4,0.6,0.2C116.5,434.7,116.5,434.6,116.3,434.4L116.3,434.4z M117.5,431.6
			c0.4,0.5,0.7,0,1.1-0.3C118.3,430.9,117.7,431.2,117.5,431.6L117.5,431.6z M115.8,433.2c-0.1-0.1-0.1-0.1-0.2-0.2
			c-0.3-0.2-0.9,0.3-0.9,0.5C115.1,434,115.7,433.5,115.8,433.2L115.8,433.2z M160.9,389.5c1-1.2,1.8-2.7,2.4-4.2
			c-10.9,8.1-23.5,15.7-34.3,21.5c-2.6,1.4-5.1,1.9-4.2,5.2C132,410.1,157.4,393.5,160.9,389.5L160.9,389.5z M117.5,429
			c-0.4-0.2-0.8,0.2-1.2,0.4c0.1,0.2-0.1,0.3,0.1,0.5C116.8,429.8,117.3,429.4,117.5,429L117.5,429z M114.5,430.8
			c-0.5,0-0.7,0.6-0.3,1C114.8,431.7,115,431.2,114.5,430.8L114.5,430.8z M167.3,380.7c1.8-1.5,2.9-2.3,1.9-4.1
			c-5.9,6.4-33.5,26.1-42.4,27.6c13.4-7.5,28.5-15.8,41.1-27.9c-0.3-0.4-0.8,0.4-1.1-0.2c0.1-0.6,0.8-0.9,1.1-1.4
			c-0.2-0.4-0.7-0.7-1-0.9c-13.6,11.4-27.1,20-40.8,27.9c-0.2,1.8-0.9,3.5-0.4,5.3C132.5,404.6,159.7,387.5,167.3,380.7L167.3,380.7
			z M115.8,427.5c-0.2,0.1-0.5,0.1-0.6,0.4C115.4,428.8,116.6,428.1,115.8,427.5L115.8,427.5z M110.1,433.9c0.2-0.6,0-1.3-0.2-2
			c-6.9-2.1-13.8-4.3-20.7-5.9C96.1,431,103.2,431.4,110.1,433.9L110.1,433.9z M119,423.2c-0.5-0.2-1.8,0-1.2,0.9
			C118.2,423.9,118.9,423.6,119,423.2L119,423.2z M117.4,424.5c-0.3-0.2-0.5-0.2-0.7,0c0,0.2,0.2,0.3,0.4,0.4
			C117.2,424.8,117.3,424.7,117.4,424.5L117.4,424.5z M114.6,425.4c-0.1,0.5-0.1,0.9,0.1,1.5C115.6,426.8,115.3,425.6,114.6,425.4
			L114.6,425.4z M120.5,420.3c-0.3,0.1-0.6,0.3-1,0.5C119.8,421.2,120.8,420.7,120.5,420.3L120.5,420.3z M86.7,424.3
			c3.4,2,18.1,4.8,22.8,6.1c0.5-0.6,0.1-1.2,0-1.8c-8.1-2.3-16.3-4.2-24.5-6.7C85.5,422.7,85.8,423.8,86.7,424.3L86.7,424.3z
			 M117.2,421.3c-0.3-0.2-0.7-0.6-1-0.3c-0.2,0.3,0.3,0.9,0.7,0.9C117.2,421.7,117.2,421.5,117.2,421.3L117.2,421.3z M121.5,415.9
			c-0.5,0.1-1.4,0.5-1.2,1.2C121.1,418.1,122.5,416.7,121.5,415.9L121.5,415.9z M113.8,423.6c-0.2,0.2-0.2,0.5-0.1,0.8
			C114.2,424.4,114.3,423.9,113.8,423.6L113.8,423.6z M119.9,417.7c-0.1,0-0.2-0.1-0.2-0.1c-0.6,0.2-2,1.2-1.5,1.9
			C118.9,419.7,120.2,418.4,119.9,417.7L119.9,417.7z M163.5,373.3c0.4-0.4,1.1-0.8,1.2-1.2c-0.7-0.9-1.5-0.8-2.2-1.3
			c-11.4,10.2-23.4,18.1-35,24.9c-0.4,1.4-1,2.8-0.9,4.2c13.1-6.9,26.8-16.5,39.3-26.8C165.1,372.5,164.1,374.5,163.5,373.3
			L163.5,373.3z M109.2,425.2c-9-2-17.9-5.1-26.9-6.7c2.7,4,21.8,7.4,27,8.5C109.5,426.4,109.3,425.8,109.2,425.2L109.2,425.2z
			 M115.5,419.6c2.1,0,0.1-2.8-0.8-2.5C115,417.9,114.5,419.1,115.5,419.6L115.5,419.6z M118.6,416.5c-0.2-0.5-0.5-0.9-0.6-1.3
			c-0.3,0-0.6-0.1-0.9-0.2c-0.4,0.2-0.8,0.4-1.1,0.9c0.2,0.7,0.6,1.5,1.2,2.2C117.8,417.9,118.3,417,118.6,416.5L118.6,416.5z
			 M120.7,413.2c-0.3-0.4-0.6-0.6-0.9-0.7c-0.5,0.3-1.5,1-1.7,1.6C119.8,415.4,120.4,414.8,120.7,413.2L120.7,413.2z M122.2,410
			c-0.7-0.1-1.1,1-1.6,1.5c0.2,0.5,0.9,1.2,1.4,0.9C122.3,411.6,122.3,410.9,122.2,410L122.2,410z M81.1,416.9
			c9.3,1.9,18.7,5.1,28.1,6.9c0.7-2.6-1.4-2.1-3-3.1c-4.3-2.5-22-6-27.1-6.5C79.6,415,80.2,416.1,81.1,416.9L81.1,416.9z
			 M118.9,411.4c-0.9-0.4-0.6-1.5-1.6-1.7c-1.3,1.1-1.1,2.2,0.1,3.2C118.1,412.7,118.8,412,118.9,411.4L118.9,411.4z M123.3,403.2
			c-1.3,0.2-1.5,2.8-3.2,4c0.2,0.4,0.6,0.1,0.8,0.4C122.9,410.4,123.3,404.6,123.3,403.2L123.3,403.2z M113.2,414.5
			c0,0.6,0.2,1.2,0.6,1.7C114.6,416.2,113.7,414.5,113.2,414.5L113.2,414.5z M115.5,411.6c-0.4,0.6-0.6,0.7-1,1.1
			C116,414.5,117.8,412.9,115.5,411.6L115.5,411.6z M158.4,372.6c-1.3-0.1-2.4,2.1-3.7,1.6c1.5-1.5,3.8-2.6,5.1-4.1
			c-0.8-0.8-2.1-1-3.1-1.3c-6.2,6.5-14.4,12.4-21.4,17.3c-3.3,2.2-7.8,4.5-7.2,7.8C138,388.1,148.9,381.2,158.4,372.6L158.4,372.6z
			 M120,409.1c-1-1.1-2.7,0.2-0.9,0.8C119.3,409.6,119.8,409.5,120,409.1L120,409.1z M78,412.6c10.3,1.1,20.6,4.8,30.9,7.2
			c0.1-1.1,0.4-2.2-0.1-3.3c-11.8-4.2-23.5-7.4-35.2-9.5C75.2,408.9,76.4,410.6,78,412.6L78,412.6z M112.5,407
			c-0.4,1.2,0.9,2.5,1.8,3.9C116.4,410.1,112.9,408.1,112.5,407L112.5,407z M115.3,408.3c-0.1,0.4,0,1,0.5,1.3
			C117.6,408.9,116.2,407.8,115.3,408.3L115.3,408.3z M121.5,403.2c-1.3-1.7-2.6,0.6-3.6,1.2c-0.2,0.6,0.7,1.7,1.3,1.9
			C119.9,405.3,121.3,404.3,121.5,403.2L121.5,403.2z M118.2,407c-0.3-0.4-0.8-0.8-1.2-1.3c-0.3,0-0.7,0.4-0.8,0.7
			C116.7,406.9,117.8,407.4,118.2,407L118.2,407z M121.9,402.2c0.1,0.1,0.2,0,0.3,0.1c0.1-0.1,0.1-0.1,0.2-0.2
			C122.3,401.9,121.9,402,121.9,402.2L121.9,402.2z M124.2,397.6c-1-1.4,1.3-2.7,1-4.1c-0.3-0.4-0.5-0.3-0.6-0.7
			c1.4-2.2,1.8-4.9,2.2-7.4c-4.5,1.3-9.5-0.5-13.6-4c1.2,3,4.4,5.6,6.8,6.4c-0.6,0.3-1,0-1.6,0.1c2.2,2.2,4.9,0.9,7.3,1.3
			c-1.3,1.1-3,0.3-4.5,0.9c0.5,1.1,1.4,0.6,1.9,1.4c-3.2-0.4-6.6-3.3-9.6-5.6c-0.3,0.3,0.4,0.8,0.4,1.1c-0.1,0.4-0.5,0-0.8,0.4
			c0.4,1.5,2.1,3,2.8,4.6c2.2,0.8,4.5,0.6,6.7,0.3c-1.2,1.8-3.6,0.5-5.4,1.1c2.2,1.8,4.8,0.8,7.1,1.3c0.1,0.1,0,0.1,0.1,0.2
			c-1.5,1.7-3.6,0.4-5.3,0.5c0.7,1.1,2.4,1.7,3.4,1.7c-1.8,2.4-4.6-2.1-6.7-2.8c-0.3,0.2-0.1,0.5-0.4,0.7c-0.2,0.2-0.5,0-0.6,0.2
			c0.4,0.9,1.1,2,2.1,2.3c-0.1,3,3.8,2.5,5.6,2.3c0,0.5-0.9,0.9-1.1,1.4C123.7,402.2,124.1,399.3,124.2,397.6L124.2,397.6z
			 M105.6,414.5c0.6,0.1,2.6,1.3,3.1,0.8c0.3-0.3,0.3-2.1,0-2.5c-2-2.4-34.2-8.7-38.6-9.4c0.5,0.9,1.7,1.9,2.6,2.9
			C78.5,406.2,99.3,412.3,105.6,414.5L105.6,414.5z M154.8,368.3c-1.9-1.2-2.5-0.6-4,0.9c-4.9,4.9-10.7,9.3-15.9,13.5
			c-2.5,2-5.6,3.3-5.2,6C138.3,382.6,147.6,377.2,154.8,368.3L154.8,368.3z M111.4,400.8c-0.7,1.1,0.3,2.7,0.9,3.7
			c0.4-0.2-0.2-0.8,0.1-1.3c0.8,0.5,1.1,2,1.6,2.8C116.7,406.1,112,402.2,111.4,400.8L111.4,400.8z M118.8,401.7
			c-1.9-0.6-4.1-1.1-5.6-3.1c1.3,1.9,2.5,3.5,3.6,5.2C117.6,403.1,118.9,402.7,118.8,401.7L118.8,401.7z M114.1,401.7
			c0.1,0.8,0.8,2.8,2,2.6C115.6,403.4,114.8,402.3,114.1,401.7L114.1,401.7z M108.8,411.2c0.4-0.3,0.2-3.1-0.4-3.6
			c-0.3-0.2-1,0-1.4-0.2c-7.2-4.1-15.9-4.5-23.5-6.5c-6.5-1.7-13.5-1.9-19.6-2.7c1.6,1.4,3.1,2.5,4.6,3.8
			C76.8,401.5,108.1,411.9,108.8,411.2L108.8,411.2z M150.7,367c-0.8,0-2.5-0.9-3.3-0.3c-2.3,1.5-4.9,4.6-7.7,6.6
			c-4.4,3.1-8,6.3-8.4,10.9C138.2,378.5,145.7,373.5,150.7,367L150.7,367z M108.4,406.6c0.6-2.6-2-3.4-4.2-4.3
			c-6.2-2.6-13.6-2.9-20.5-4.7c-7.5-2.1-15.4-1.7-22.8-2.8c0.1,0.7,1.2,1.1,1.3,2.1C77.6,398.7,93.1,401.3,108.4,406.6L108.4,406.6z
			 M112.7,396c0.2,1.2,2.1,2.8,3.3,2.5C115.4,397.2,113.8,396.3,112.7,396L112.7,396z M129.7,381.3c-0.5,1.2-0.9,2.3-1,3.5
			C129.4,383.6,130.1,382.5,129.7,381.3L129.7,381.3z M111.5,396.6c-0.3-0.4-0.4-0.9-0.8-1.2c-0.4,1.4-0.1,2.9,1,4.1
			c0.1-0.1,0.1,0,0.2-0.1C111.7,398.5,110.8,397.6,111.5,396.6L111.5,396.6z M127.3,384.3c0.9-3,2.3-6,2.9-9
			c-1.8,1.7-4.2,2.4-6.3,2.6c0.5-0.9,1.3-0.5,1.8-1.2c-2.7-1.6-5.3-0.2-8-0.6c3,3.5,6.9,3.8,10,4.3c-4.6,1.1-10.5,0.3-13.6-4.3
			c1.5,0.6,3.7,3,4.9,2.5c-2.2-2.4-4.6-4-7.2-4.1c1.8,2.8,5.1,6.2,7.9,7.1c0,0.2-0.5,0.4-0.2,0.6
			C121.8,384.5,124.5,385.3,127.3,384.3L127.3,384.3z M145,366.2c-4.7-1.3-9.7,5.5-10,9.4C138.4,372.8,142.7,370.2,145,366.2
			L145,366.2z M107.6,399.6c-17.3-6-34.6-6.8-51.9-9.8c5.5-0.7,11.4,0.6,17,1.5c11.5,1.5,22.9,3.5,34.4,6.5c1-3.9-2.7-4.5-5.9-5.3
			c-15.2-3.7-30.7-6.3-46-6.7c8-1.6,16.4,0.5,24.6,1.6c8.8,0.8,17.7,3.7,26.5,5.6c-0.9-1.3,0-4.5-1.3-5.8c-0.8-0.7-3.9-1.1-5.1-1.5
			c-1.1-0.3-2.6-0.5-3.8-0.7c-11.9-2.1-25.5-2.1-37.3-2.9c-0.2-0.3,0.5-0.6,0.7-0.8c15.1,0.2,30.2,1.7,45.2,4.4
			c-0.1-2.6-1.8-2.5-3.7-3.1c-12.4-3.4-25.8-4.3-38-5c-0.3-0.3-0.6-0.6-0.8-0.6C57.1,379.4,52,385,47.6,389
			c3.2,2.6,6.9,2.5,10.2,3.2c0.2,0.2-0.5,0.4-0.4,0.7c2.5,1.5,4.9,0.5,7.3,1.5c14.4,0.8,28.8,3.7,43.1,8.2
			C108.1,401.6,107.8,400.5,107.6,399.6L107.6,399.6z M109.8,389.3c-0.4,2.1,1.4,6.8,4.4,6.4C113.4,393.5,110.9,391.5,109.8,389.3
			L109.8,389.3z M113.2,391.9c0.1,0.8,1.3,1.8,2,1.9C114.6,393.3,114.3,391.7,113.2,391.9L113.2,391.9z M114.5,391.2
			c-2-2.1-2.4-5.9-5.4-5.7c-0.6,2.6,4.2,2.6,3.1,4.9C113,390.8,113.7,391.5,114.5,391.2L114.5,391.2z M111.9,379.7
			c-0.1,0.3,0.1,0.6,0.5,1c0.3,0.2,0.6-0.2,0.9,0c2.5,2.1,5,3.7,7.6,3.7C118,382.8,115,379.3,111.9,379.7L111.9,379.7z M138.5,366.3
			c0.2,0.3,0.5,0.1,0.7-0.1C138.9,365.9,138.7,366,138.5,366.3L138.5,366.3z M115.7,386.9c0.2,0.4,0.7,0.8,1.1,0.6
			C116.6,387.2,116.1,386.9,115.7,386.9L115.7,386.9z M135.9,366.4c-0.9,0.7-1.4,2.3-1.5,3.4C135.3,369.1,135.6,367.4,135.9,366.4
			L135.9,366.4z M130,373.7c-2.1,0-4.1-0.1-6.1,1.4C125.8,376.4,128.2,376.1,130,373.7L130,373.7z M132,370c-1.4,1.3-3.2,2-4.7,3.2
			C129.2,373.9,132.6,372.6,132,370L132,370z M110.8,389c-0.4,0.3,0.3,0.9,0.5,1c0.1,0.1,0.1,0.1,0.1,0
			C111.4,389.7,111.3,389.1,110.8,389L110.8,389z M132.6,367.3c-2.1,1.7-5.5,4.7-8.4,5.4C127,373.5,131.7,370,132.6,367.3
			L132.6,367.3z M107.1,375.5c-0.1,4.1,3.2,8.8,7.7,9.8C112.3,382.2,110.1,378.1,107.1,375.5L107.1,375.5z M135.4,361.6
			c-2.4,0-4.7,2.6-7,3.9c0.8,0.4,2.2,0.4,2.5-0.5c0.6,0.1,0.9,0.9,0.6,1.3c-0.5,0.3-1,0.2-1.6,0.5c-3.3-0.5-6.6-0.4-9.9-1.2
			c-1.9-0.2-5,0.2-6.2-1.6c0.9-0.3,1.7,0.4,2.5,0.1c-3.8-2.1-6.7-5.2-9.9-8.7c-0.3,0-0.9-0.2-1,0.1c0.6,0.5,1.6,1,1.9,1.8
			c-0.3,0.4-0.6-0.4-1,0c3.7,6.7,10.5,8.6,14.8,11.7c-2.7-0.5-5.5-2.5-8.3-3.4c1.8,2,4.3,4.1,6.7,4.2c2.9,0.2,6.8,0.1,9-1.6
			c0.4-0.1,0.7,0.2,1,0.3C131.8,366.5,134.9,364.3,135.4,361.6L135.4,361.6z M121.5,374.6c0.5,0.8,2.3-0.4,2.8-0.9
			C123.7,372.8,120.9,373.7,121.5,374.6L121.5,374.6z M126.9,370.5c-0.3-0.4-0.9,0.2-0.6,0.5C126.5,371,126.8,370.8,126.9,370.5
			L126.9,370.5z M125.6,370.9c-2.1,0-4.9-0.1-6.9,0.2C120.9,373.1,123.7,372.7,125.6,370.9L125.6,370.9z M111.8,369.7
			c2,2.9,5.2,6.9,8.3,5.6C116.9,375.1,114.6,370,111.8,369.7L111.8,369.7z M108.8,356.1c0.3,0.3,0.5,0.3,0.7,0.7
			c1,3,5.2,5.4,7.5,6.9c6.3-1.7,14.2,0.8,19.5-5.3c0.9-0.3,1.7-1.3,1.7-2.2c-2.8,0.3-5.8,2-8,4.1c-1.2-0.4-2.5,0.5-3.7,0
			c1.7-1.3,3.6-0.5,5-2c-2.7,0-5.4,1.7-8.1,1.3c-0.2-0.4,0.4-0.6,0.5-1c-2.5,0-4.9-0.5-7.3-1c0,0.2,0.2,0.4,0,0.6
			c-3.3,0.3-6.6-4.6-9.3-6.5C107.3,353.4,109,354.7,108.8,356.1L108.8,356.1z M114.5,370.4c1.6,1.8,4,3.6,6,3.8
			C118.5,373.5,116.5,370.3,114.5,370.4L114.5,370.4z M120.1,372.8c0,0.3,0.5,0.5,0.8,0.3C120.6,372.8,120.3,372.7,120.1,372.8
			L120.1,372.8z M107.4,371.6c0.4,0,0.8,0.7,1.2,0.5c-1.6-1.6-3.2-3.8-4.7-4.6c0.8,2.4,1.5,4.8,3.8,7.3c0.5-0.2-0.2-0.9,0.4-1
			c0.7,2.5,3.7,4.9,6.2,5.2C112.6,376.4,108.9,373.7,107.4,371.6L107.4,371.6z M130.9,362.8c-4,0.6-8.7,1.1-12.3,1.8
			C122.5,364.8,127.3,367.3,130.9,362.8L130.9,362.8z M108.6,382.9c-0.2,0.4,0,0.9,0.4,1.2C109.4,383.7,108.9,383.1,108.6,382.9
			L108.6,382.9z M139.3,353.4c-0.5,0.1-1.6,1-1.9,1.7C138.1,355,139.4,354.3,139.3,353.4L139.3,353.4z M139.6,351.4
			c-4.3,1.4-8.6,3.7-12.9,3.5c5.2-1.9,10.7-3.4,14.4-9.3c-3,1.3-6.3,4.8-9.1,3.5c3.3-1.7,7.4-3.3,10.7-6.3c-0.2-0.3-0.7-0.5-0.5-0.7
			c2.1-0.1,4.2-2.3,4.1-4.7c-3.3,1.7-6.4,5.4-9.5,7c0.4-1.3,1.9-1.9,3.1-2.8c-2.3,0.5-4.5,1.9-6.6,2.3c2.7-3.5,10-3.4,12.2-9.1
			c1.9-1.8,3.2-4,3.8-6c-4.2,3.2-7,7.3-11.2,9.5c0.1-0.9,1.5-1.3,1.8-2.2c-0.6,0.3-1.1,0.2-1.7,0.4c-1,2-3.8,5.1-5.7,3.5
			c-1.7-1.4-4.2-5.7-1.9-7.3c1.8-1.3,7.4,0.2,7.8,2.7c3.8-1.6,9-5.7,11.2-9.7c0-0.3-0.6-0.1-0.5-0.5c2.5-1.1,3.9-4.3,3.9-6.5
			c-2.1,2.3-4.4,5.7-7.2,8c0.1,2.6-4,7.2-6.5,4.4c-5.4-6.4,2.2-11.7,5.7-7.1c4-3,9.4-7.8,10.4-12.1c-1.4,0.8-3.6,2.1-4.5,3.6
			c-2.6,2.2-5.1,1.3-7.7,2.4c0.2-0.7,1.3-0.9,1.9-1.4c-5.2-3.2-2-9.3,0.8-9.2c1.2-0.8,2.4-0.3,3.6-0.3c3.8-3.3,6.7-7.4,8.6-11.6
			c-2.7,1.8-5.6,5.9-8.4,5.6c2.4-3.3,5.5-6.6,6.9-10.2c-1.5,1.1-3.1,3.9-4.4,2.8c3.9-4.2,8.8-7.8,7.6-12.3
			c-2.8,3.7-5.1,8.8-9.3,11.3c0.9-1.8,3.2-3.4,3.7-5.1c-0.3,0.2-0.5,0.8-0.9,0.5c3.7-5,8.2-10,6.7-15.1c-3.2,3.2-5.1,7.7-8.4,10.5
			c0.2-1.7,2-3.3,3-4.9c0-0.4-0.7-0.1-0.7-0.5c3.5-3.7,7.6-8.1,5.9-12.3c-2.2,2.1-3.6,5.6-5.9,7.6c-0.1-0.1-0.1,0-0.2,0
			c1.1-4.5,7.7-8.9,5.5-13.5c-1.5,1.2-2.1,3.1-3.5,4c-0.6-1.2,1.5-2.3,1.5-3.4c-1.3,0.2-1.2,2.6-2.8,2.4c-0.3-0.4,0.5-0.8,0.3-1.2
			c-16.2,4.8-32.4,9.9-48.3,4.2c-0.2,0-0.4,0.5-0.6,0.3c-0.8-1.2-2.4-1.2-3.6-1.5c0.3,1.6,2.1,3.2,1.7,4.8c-1-0.5-1.3-2.3-1.7-3.3
			c-0.4-0.9-2.1-3-2.7-2.4c-0.9,0.7,1.5,2.4,0.5,3.3c-1.6-2.3-2.2-5.5-5.2-5.6c1,3.2,4.5,7.2,7.3,10.2c-0.9,0-1.9-1.5-2.8-1.9
			c-0.4-0.1-0.2,0.6-0.5,0.6c-1.4-2-2.6-4.1-4.8-5.6c1.4,4.1,4.6,8.9,6.5,12.8c0.8,1.6,2.4,1.7,4,2.6c0.1,0.3-0.1,0.7-0.4,0.8
			c-0.8-0.3-1.7-1.1-2.5-0.7c-0.1,0.5,0.7,1,0.3,1.4c-1.4-0.8-2.2-2.9-3.4-3.6c0-0.4,0.6-0.2,0.6-0.5c-1.1-1.2-2.4-3.3-3.7-3.7
			c1.2,2.6,2.3,5.3,4.6,7.8c-3.3-1.6-6.3-6.6-9.6-8.8c1.2,5.4,7.8,9.1,11.5,13.7c-3.8-1.4-7.1-6.2-10.9-9.4c0.4,2,1.9,4.1,3.2,6.1
			c0.3-0.2,0.1-0.7,0.5-0.8c2.9,4.4,8.3,5.5,12.3,6.5c-0.1,0.1,0,0.1,0.1,0.2c-3,1-6.3-1-9.3-2.3c1.7,2.1,3.9,3.7,5.3,5
			c-2.4,0.5-4.3-3.8-6.6-4.4c1.7,2.3,2.6,5.4,4.9,7.4c2.1,1.8,5.4,1.2,7.7,2.3c-0.1,0.1,0.1,0.3,0,0.4c-2.1,1-4.1-1-6.2-0.7
			c0,1,2,2,1.7,3c-2.1-0.6-2.7-3.4-4.5-4.7c-0.5,0.6,0.9,0.7,0.4,1.3c-1.5-0.3-3.1-2.8-4.7-3.2c0,3.7,6,6.6,7.3,9.6
			c2.6,1.2,5.3,1.8,8,2c-3.3,2.4-7.8-1.6-11.6-2.4c1.2,1.6,3.6,2.9,4.3,4.5c-4.2-1.8-7.4-6.7-11.1-9.5c0.9,6.4,9.4,10.4,13.7,14.5
			c7.4-10.2,14.8,10.5,4.6,6.7c-2.7-1-3.2-3.7-4.8-5.5c-1.6-1.7-4.8-1.3-6.4-2.7c1,2.2,4.2,3.3,5.5,5.3c-1.1,0.3-2.1-1.5-3.1-1.9
			c-0.1,1.5,2.2,2.9,2.2,4.4c-2.5-1-3.1-4.5-5.1-6.4c-2.8-2.7-5.9-5-7.9-7.9c1,2.7,2.2,5.8,4.2,8.3c0.2,0.1,0.5-0.6,0.7-0.3
			c0.3,0.4-0.3,0.7,0,1.1c5.7,6.4,11.6,8.6,18.1,7.1c-2.2,2.4-5.7,1.2-8.5,0.6c-0.4,0.3,0.2,0.6-0.1,0.9c-2.6-1.4-5.1-2.5-7.6-4.3
			c0.4,6.3,7,8.8,11.9,9.1c-0.5-4.1,4.7-3.4,7-3.4c3.8,2.5,1.6,6.9-2,8.6c-1.8-0.1-3.6-2.2-4.6-4c-2.4-0.6-4.8-1-7.1-1.8
			c0.1,0.3,0.3,0.4,0.1,0.6c-2,0.1-3.6-2.5-5.6-3c2.8,8.4,13.3,9.6,19.5,10.4c-4.8,1.7-10.5-1-15.3-3.5c0.4,0.9,2.6,1.4,2.9,2.6
			c-1,0.6-1.9-1-2.9-1c0.5,2.7,4.2,4.3,6.8,5.7c2.9,1.6,6.5,2,8.9,3.1c-4.8,1.4-9.3-3.2-13.9-4.9c3.4,7.3,11.6,8.3,17.3,8.3
			c-5.1,2.8-11-1.6-16.3-4c4.4,11.1,16.4,10.4,24.1,10c-5.4,2.5-11.7,0.4-17.5-1.2c1.2,1.5,2.9,2.4,4.2,3.3c3.4,0.8,6.8,0.8,10.2,1
			c2-0.2,4.6-1.6,6.1-0.7c-5.7,2.1-12.7,1.8-18.5-0.3c-1.3-0.5-5.3-0.9-4.5-3.1c0.7,0.2,1.6,1.6,2.4,1.5c-2.6-3.1-6.1-5.9-9.3-8
			c0.1,1.3,1.3,2.4,2,3.7c0.2,0.2,0.4-0.4,0.6-0.1c1.6,2.8,4,5.3,6.5,8c0.4,0.1,0.7-0.1,1,0c-0.4,0.9,0.8,1.4,1.6,1.9
			c3.4,1.1,6.7,2.4,10.2,2.1c2.7-0.2,5.1-2,7.8-2.2c-0.9,0.8-2.3,1-3.3,2.1C132.1,357.6,136.4,355.9,139.6,351.4L139.6,351.4z
			 M141.1,348c1.1-0.2,1.7-1.9,1.5-2.6c-1.9,1.9-3.9,3.8-5.8,5.7C138.1,351.2,141.8,349.7,141.1,348L141.1,348z M114.1,374.2
			c-5.1-6.7-12.1-11.9-15.4-19.4c1.6,4.6,4.3,9.5,7.8,13.7c0.2-0.3-0.6-0.8,0-1.1c1.4,1.1,2.5,4.1,4.3,4.8c-0.2,0.2-0.5,0.2-0.5,0.5
			C110.9,374,112.8,373.8,114.1,374.2L114.1,374.2z M101.9,376.9c-2.3-1.8-6.9-0.5-9.3-1.9c-9.5,0.7-19.3-4.6-28.8,1.5
			c13.2,1.4,26.4,2.4,39.7,5.8C103.1,380.8,103.3,378,101.9,376.9L101.9,376.9z M106.8,362.4c1.3,2.8,4.7,7.1,7.8,7
			C112.2,366.5,108.8,364.8,106.8,362.4L106.8,362.4z M101.5,375.4c0.1-0.9-0.4-1.7-0.9-2.6c-9.3-2.2-18.6-4-27.9-0.5
			C82.3,373.5,91.9,373.7,101.5,375.4L101.5,375.4z M105.4,360.6c1.2-0.9,1.9,1.2,3,1.5c-3-4-5-8.4-9.6-10.4c1.7,3,4.8,6.1,6.4,8.7
			c-2.4-0.7-3.8-4.5-5.6-5.6c2.3,3.9,4.8,8.9,9,11.9C107.5,364.8,106,362.7,105.4,360.6L105.4,360.6z M108.7,362.8
			c-0.1,0.4,0.9,1.2,1.3,1.2C109.7,363.6,109.2,362.6,108.7,362.8L108.7,362.8z M137,336.1c-0.3-0.3-0.6-0.2-0.8-0.6
			c-0.1-0.3,0.5-0.6,0.5-0.8c0-0.3-0.4-0.3-0.7-0.7c-2,0.3-3.4,3.6-1.1,4.6C135.8,338.1,136.8,336.9,137,336.1L137,336.1z
			 M100.2,371.5c0.2-0.3-0.2-0.7-0.4-1.1c-3-1-5.9-0.6-8.9-0.5C94.1,370.7,97.2,370.9,100.2,371.5L100.2,371.5z M144,326.4
			c-1-0.2-1.6,1.3-2.6,1.1c0.2-0.7,2.4-1.8,1.2-2.7c-0.2,1.1-1.1,2-2.2,2.4c0,0.2,0.2,0.5,0.5,0.7c0.2,0.1,0.3-0.3,0.6-0.2
			c0.1,0.3-0.2,0.4-0.4,0.6c0.1,0.3,0.1,0.7,0.3,1C142.5,329.9,144,327.4,144,326.4L144,326.4z M147.2,323.6
			c-0.5,0.3-1.8,0.9-1.3,1.5C146.3,324.9,147.2,324.1,147.2,323.6L147.2,323.6z M132.1,333.4c-0.4,0-0.7,0.2-1.2,0.5
			c0,0.5-0.1,1,0.3,1.5C131.4,334.8,132,334.2,132.1,333.4L132.1,333.4z M156.6,308c-0.4,0.5-0.8,1.1-0.7,1.6
			C156.2,309.2,156.8,308.5,156.6,308L156.6,308z M157.5,303.4c-2.2,1.9-4.6,3.3-6.6,4.4c1,1.2,1.7,2.7,1.7,4.1
			C154.7,309.4,156.8,306.3,157.5,303.4L157.5,303.4z M99.7,346.3c1.2,2.5,2.2,7.7,5.9,8.1c-0.3-0.8-1.6-1.6-1.1-2.5
			c0.8,0.6,2,2.4,2.8,3.3C107.4,351.3,102.4,348.4,99.7,346.3L99.7,346.3z M149.6,312.9c-0.7,0.6-1.7,1.2-2.5,2.1
			C148,314.9,150.3,314.2,149.6,312.9L149.6,312.9z M146.3,309.5c-1,0.4-1.8,2.4-1.2,3c0.5,0.7,2-0.1,2.3,1.2
			C150.6,312.4,148.2,308.6,146.3,309.5L146.3,309.5z M145.9,314.1c0,0.3,0.5,0.4,0.7,0C146.4,314,146.2,313.9,145.9,314.1
			L145.9,314.1z M159.1,296.2c-2.1,3.2-4.3,6.9-7.3,9.7C155.9,304.6,159.9,300.1,159.1,296.2L159.1,296.2z M95,335.9
			c1.2,3.9,4,10.3,8.8,12C101.6,343.7,99.5,339.2,95,335.9L95,335.9z M97.6,353c-0.3,0,0.1,0.6,0.2,0.3
			C97.7,353.3,97.9,353.1,97.6,353L97.6,353z M159.5,287.9c-1.5,3.5-4.9,7.5-7.4,10.9C155.4,296,162.1,292.2,159.5,287.9
			L159.5,287.9z M91.7,338.4c1.2,3.8,3,8.7,7.5,11.7C96.2,346.3,95.1,342.1,91.7,338.4L91.7,338.4z M105.1,342.9
			c0.1-1.3-1.7-2.7-1.2-4c-1-0.7-2.2-1.9-3.1-2.3C102.1,338.8,102.6,342.4,105.1,342.9L105.1,342.9z M95.4,342.3
			c1.2,1.9,2.1,4.1,3.8,5.8C99.1,346.2,96.9,343.4,95.4,342.3L95.4,342.3z M113.7,329.6c1.3,1.4,5.2-2.2,3.7-3.4
			c-0.2,0.7-0.8,1.4-1.5,1c0.1-0.6-0.8-1.6-1.4-1.9c-0.6,0.3,0,0.7,0.3,1.1C114.3,327.5,112.8,328.5,113.7,329.6L113.7,329.6z
			 M94,349c-0.2,0.2,0,0.6,0.2,0.5C94.2,349.3,94.2,349.1,94,349L94,349z M93.8,329.9c0.9,2.4,2.3,5.7,4.3,7.6
			c0-0.9-1.1-1.8-0.8-2.7c1.9,1.2,1.7,4.8,4.3,5.7C100.2,336.5,97.1,333.2,93.8,329.9L93.8,329.9z M92.9,346.2
			c0.1,0.5,0.2,0.9,0.5,1.5c0.1-0.1,0.2-0.1,0.3-0.1C93.4,347.2,93.4,346.3,92.9,346.2L92.9,346.2z M102.4,335.4
			c-0.2,0-0.5-0.1-0.7,0.1c0.1,0.5,1.1,1.3,1.5,1.5C102.9,336.4,103,335.9,102.4,335.4L102.4,335.4z M88.5,328.5
			c-0.3,0.2,0,0.9,0.2,1.3c0.2,0.3,0.4-0.1,0.6,0.3c1.9,3.5,2.9,7.9,6.7,10.7C94.8,336.4,92.2,332.2,88.5,328.5L88.5,328.5z
			 M111.7,324.8c-0.2-0.2-0.3,0.1-0.5,0.2c0,0.3-0.1,0.6,0.2,0.8C111.7,325.5,111.8,325.2,111.7,324.8L111.7,324.8z M99,329.2
			c-0.9-1.1-2.1-2.1-3.2-2.7c1.4,2.7,2,6,4.7,8.4c0.4-0.1,0.7-0.3,1-0.5C100.1,332.9,96.6,331.1,99,329.2L99,329.2z M91.4,341.4
			c-0.4,0.2,0,0.8,0.1,0.6C91.5,341.8,91.6,341.6,91.4,341.4L91.4,341.4z M99.7,329.9c-0.2,0-0.6,0.1-0.7,0.4c0.2,0.7,1.2,1.9,2,1.8
			C101,331.3,100.3,330.8,99.7,329.9L99.7,329.9z M112.7,312.3c0.4,1.6-1.3,1.4-2.4,1.7c0.1,0.8,0.1,1.7,0.1,2.5
			C113,318.6,116.9,313.3,112.7,312.3L112.7,312.3z M89.6,319.9c0.9,3.9,3.3,8.7,7.5,11.7C95.3,327.5,93.3,323.5,89.6,319.9
			L89.6,319.9z M93.5,332c-0.1,0.3,0.3,1.2,0.7,1.1C93.8,332.7,93.8,332.1,93.5,332L93.5,332z M90.5,334.7c-0.2,0.4,0,0.8,0.3,1.1
			C91.2,335.6,90.8,334.9,90.5,334.7L90.5,334.7z M86.3,320.9c0.5,1.3,0.1,3.6,1.9,4.3c0.6,1.8,2.4,5.4,4.7,5.8
			c0.2,0.2,0.1,0.6,0.4,0.6C92.3,328,88.8,324,86.3,320.9L86.3,320.9z M111.3,312.1c-0.3,0.2-0.4,0.4-0.1,0.6c0.1,0,0.1-0.1,0.2,0
			C111.5,312.5,111.4,312.3,111.3,312.1L111.3,312.1z M87.6,305.1c2.2,4.4,3,9.4,7.7,13.4c0.5-0.3,1.2-0.8,1.4-0.4
			c-0.1,0.5-0.6,0.8-0.7,1.3c1.2,1.1,2.1,2.4,3.2,3c0.1-0.1,0.1-0.1,0.2-0.2C97.1,316.3,93,310.5,87.6,305.1L87.6,305.1z M93.1,318
			c0.6,1,1.3,2,0.9,3c-1.4-4.3-6.5-9.4-9.1-14.2c0.1,4.3,4.1,9.4,6.7,13.7c-0.1-1.7-2.1-3.5-1.8-5c2.5,1.9,2.6,7.5,6.5,9.5
			C96.8,322.8,94.8,319.2,93.1,318L93.1,318z M97.2,305.5c0.8,3,3.9,4.1,6.1,4.6C101.4,308.5,99.3,307,97.2,305.5L97.2,305.5z
			 M245,173.4c-7.5-2.5-15-5-22.5-8c-0.5,0.1,0.1,0.7-0.4,0.7c-4.9-2.9-9.3-9.6-12.6-13.4c1.4,3.1,4.1,6.2,6,9.2
			c8.7,9.9,19.4,10.4,29,12.1C244.8,173.9,245.1,173.6,245,173.4L245,173.4z M222.5,164.4c7.8,2.9,15.6,5.7,23.4,7.8
			c-8.1-5.6-18.2-5.7-27-12.3C219.6,161.5,221.8,162.6,222.5,164.4L222.5,164.4z M85.4,314.1c-1.2,2.4,1.5,5.9,3.8,8.2
			C88.1,319.5,87.3,316.8,85.4,314.1L85.4,314.1z M218.4,165.7c-3.5-2-6.2-6.8-8.7-9.7c0.6,3.5,4.3,7.1,6.3,10.6
			c-3.2-2.5-5.6-5.9-7.6-9.1c1,3.9,4.5,7.5,6.7,11.4c-4.5-3.7-6.9-9.1-9-13.4c1.3,11.6,17.2,24.5,27.9,22.9
			c-4.2-2.3-11.2-2-14.4-7.4c5.7,4.5,11.5,5.2,17.3,6.2c0.5-0.2,1.3-0.1,1.7-0.6c-1-0.6-2.3-0.2-3.2-1.1c2.5-0.6,5,1.4,7.5-0.5
			C234.8,172.8,225.8,173.1,218.4,165.7L218.4,165.7z M152.4,260.5c0.2-0.1,0.5,0,0.6-0.3C152.8,259.8,152.3,260.2,152.4,260.5
			L152.4,260.5z M246.1,170.3c0.1-0.1,0.1-0.2,0-0.3c-1.2-1.4-3.3-2-4.9-2.5c-2.9-0.7-5.9-1.4-8.9-3c-0.8-0.4-1.9-0.8-2.7-0.9
			c-6.6-1.6-12.5-7.7-17.9-13.8C219.9,164.2,234.7,165.6,246.1,170.3L246.1,170.3z M107.7,261.8c1.2,1,4.3,1.7,6.1,2
			c4,0.8,9.5,1.1,13.6,0.5c4.7-0.6,11.2-1.1,15.4-3.6c6.2-3.5,18.8-8.1,17.7-17c-0.7-1.4-2-2.1-3.2-2.5c-3,5-8.9,8.5-12.7,12.6
			c-1.5-0.6-2.7,0.8-4.2,1.5c-6.5,3-12.4,4.4-18.8,3.6c-6.5-0.9-12.7-2.1-18.8-5.4C104.8,255.7,105.5,259.7,107.7,261.8L107.7,261.8
			z M89.1,289.1c1.4,5.2,7.5,10.8,12.5,12.4C97.1,298.6,93.5,293.4,89.1,289.1L89.1,289.1z M84,293.2c-1.4,5.2,4.6,11.7,8.9,15.9
			C90.2,303.9,88,298.1,84,293.2L84,293.2z M95.6,306.5c0.1-0.2,0.1-0.5,0.3-0.7c-1.6-3.7-6.2-6.6-8.3-10.1
			C89,299.2,92.6,303.6,95.6,306.5L95.6,306.5z M84,299.9c-1.2,3.8,2.9,8.4,5.6,12C88.1,307.9,86.1,303.8,84,299.9L84,299.9z
			 M136.9,264c0.2,0.3,0.4,0.1,0.6,0C137.3,263.8,137.2,263.7,136.9,264L136.9,264z M240,165.4c-0.1,0-0.3-0.1-0.5,0.1
			c0.2,0.2,0.3,0.2,0.3,0.2C240.1,165.5,240.1,165.5,240,165.4L240,165.4z M236.9,165.3c0.3,0.2,1,0.5,1.1,0
			C237.7,165.2,237.3,165.1,236.9,165.3L236.9,165.3z M236.1,163.3c0.9,0.4,1.8,0.8,2.6,0.5C237.9,163.2,237,163.2,236.1,163.3
			L236.1,163.3z M159.2,238.3c-0.2,0.2-0.4,0.4-0.2,0.6C159.3,238.9,159.5,238.6,159.2,238.3L159.2,238.3z M113.6,200.9
			c0.7,4.7,0.8,9.5,0.4,14c-0.4,4.9-1.8,11.1-5,15.7c-2,4.1-5.9,9.2-10.3,12.4c-1.5,2.3,0.5,3.8,2.9,5.3c3,1.8,7.7,2.3,10.5,0.6
			c6.2-3.9,4.4-12.1,8.4-17.2c4.2-5.5,9.9-6.6,14.9-2.4c0.2,0.3,0.1,0.6,0.3,0.9c5.4,4.4,6.1,9.8,9.6,14.8c3.2,2.4,6.1-0.8,8.5-3.7
			c2.3-2.9,5-4.4,2.4-7.8c-4.8-4-9.7-12.6-11.6-19.4c-4.9-6.9-3.4-39.1,6-41.9c0.3-0.9-0.1-4.8-0.3-5.6c-0.7,2.1-2.1,5-4.3,6.2
			c1.6-3.1,4.6-6.5,4.5-9.7c-1.5,2-2.9,5.2-5,6.7c1.4-3.9,5.9-7.8,4.9-11.9c-2.2,1.6-3.8,5.5-6.3,5.2c1.6-3.4,8.3-6.7,7-10.5
			c-2.3,2.3-4,5.4-6.6,6.2c1.9-3.3,6.7-5.8,7.8-9.3c-0.5,0-1.1,1.3-1.8,1.2c1.5-1.9,4.1-4.2,4.1-6.2c-1.5,1.2-3.3,3-5.1,4
			c1.3-2.9,6.1-5.2,6.7-8.3c-1.6,1-3.3,3.3-4.9,2.9c2.4-3,7.2-5.2,8.2-8.7c-2,0.8-4.1,4.4-6.2,3.8c3-3.9,8.2-5.4,10.1-9.8
			c-2.2,1.1-4.2,4.3-6.3,4.3c4.5-5,11.1-9.2,13.4-15c-2.8,2.1-4.3,5.1-7.2,6.7c3-5.4,11.5-10.4,12.4-16c-2,2.6-4.7,5.5-7.2,7.8
			c-0.7,0.6-1.7,2.3-2.7,1.6c5.4-5.8,12.9-12.4,12.5-19.1c-2.3,3.3-4.5,9.5-8.7,11c3.3-3.8,6.4-8.4,8.5-12.6
			c0.3-0.2,0.4,0.3,0.6,0.3c0.1-1.4,0.7-2.8,0.3-4.2c-2.7,2.9-4.2,7.5-7.3,9.3c-2,6-5.4,12.3-10.1,18.1
			c-25.2,41.1-17.1,43.5-17.9,56.9c-1.1-0.3-2.4-1-3.2-2.2c-0.5,0.4-1,1.1-1.3,1.4c0.1-0.7,0.5-1.5,0.9-2.2
			c-1.3-0.9,1.2-2.6,0.4-3.9c-1.2,1.1-0.9,2.8-2.3,3.2c0.1-1.5,0.9-3.3,2.1-4.6c-0.2-0.7,0-1.4-0.5-2.1c-1.1,1.2-1.7,2.2-2.7,2.9
			c0.6-2.4,3.6-4.9,2.2-7.2c-0.5,0.3-0.4,1.5-1.2,1.6c0.2-2.4,2.2-4.6,1.6-6.9c-0.7,0.5-0.7,1.7-1.7,2.1c-0.3-2.9,3.4-5.7,3-8.6
			c-0.9,0.7-1.3,1.9-2.2,2.2c1.4-3.8,4.9-7.4,5.2-11.2c-0.8,0.8-1.5,2.3-2.5,3.2c1.2-4.9,6.1-9.2,7.4-14c-1.4,1.5-2.8,4.6-4.9,5.2
			c4.3-5.8,7.2-11.5,7.5-17.4c-1.3,3.1-2.6,6.8-4.6,10.2c-0.8,0.3-1,2.5-2.2,1.9c1.2-2.5,2.4-5,3.6-7.5c1.6-3.1,2.3-6.4,3.9-8.7
			c0.1-1,0.2-1.9-0.1-3c-2.2,3.7-2.2,8.5-6,11.4c2.8-5.9,5.7-11.8,5.1-17.8c-1.5,3.7-1.7,8.7-4.8,11.9c1.6-6.6,6-13.4,1.3-20.3
			c0.7,3.6,1.9,8.9-1.9,11.9c1-2.4,1.5-4.9,1.8-7.4c-0.6-0.4-0.6-0.6-1-1.2c-1,1.5-0.7,3.9-2.3,4.8c0.5-3.6,2.8-7.4,0.5-10.9
			c-0.5,2.2,0.1,5.2-1.6,6.9c0.2-4,1.6-9.7-3.5-12.4c0.9,3,2.5,6.6,0.7,9.1c-0.8-7.6-1.5-7.3-3.3-10.1c-2.4-0.9-4.8-1.5-7.3-0.4
			c2.5,2.1,3.9,5.1,3.2,7.5c-1.4-1.6-1.3-5.7-4.7-7.1c-0.8,0.3-1.5,0.8-2.2,1.3c1.8,1.2,2.8,3.4,2.3,5.1c-1.3-1-1.2-4.4-3.7-4.1
			c-5.7,4.4-5,9.3-3.3,14c2.4-7.4,10.5-7.5,15.7-2.4c11.9,16.4-0.4,33.8-6,51c0.2,2.9-1.7,5.2-2.2,7.7c-1,6.3-1.3,11.7-0.7,17.8
			c0.1,0.9,0.4,1.9-0.6,2.8c-2.2,0.4-2.8-1.8-3-3.3c-0.4,1.1-0.9,2.4-1.6,3.4c1-3.7,1.9-7.4,0.4-11.1c-0.8,0.9-0.4,2.1-1.4,2.9
			c1.1-4.3,0.3-8.6-0.5-13c-0.8,2-0.7,5.1-2.5,7c0.7-4,2.2-8.3,0-12.1c-0.8,2.3-0.5,5.3-2.5,7.2c0.6-4.4,2.6-9.4-0.9-13.6
			c-0.5,2.5,0.3,5.7-1.7,7.9c-0.2-3.7,1.4-7.7-0.8-11.2c-0.9,2.1-0.3,4.9-2.1,6.6c0.2-3.9,2.1-7.9-1-11.7c-0.5,1.8,0.4,4.7-1.5,6
			c0.1-3.6,1-7.4-1.3-10.9c-0.2,2.5,0.7,6.4-1.8,7.9c0.4-3.8,1.5-7.5-0.2-11.5c-1.2,2,0.1,6.4-2.5,7.3c0.2-4,2.6-8.1,0.1-12.1
			c-1.2,2.1-0.1,5.9-2.7,6.9c0.4-4,2.4-7.9,1.4-12c-1.1,1.9-1.2,5-3.1,6.3c0.4-2.9,1.6-6,2.9-8.6c-0.1-0.9-0.2-1.7-0.5-2.5
			c-1.4,1.5-1.6,3.9-3,5c-0.5-2.8,3-5.4,2.8-8.2c-1.2,0.9-1.4,3.6-3,3.7c-0.5-2.6,3.7-5.2,3.2-7.8c-1.7,0.9-1.8,3.1-3.4,3.4
			c-0.3-2.4,4.3-4.7,4-6.8c-0.5,0.3-1.1,1.5-1.6,1.1c0.3-0.5,0.7-1,1-1.5c1.8-0.8,9-15.4,18.2-1.5c0.7-0.9-1-5.5-1-6.4
			c-2.7-4.7-7.5-6.8-11.5-5.4c-9.7,5.8-13.6,14.4-14.1,22.5c-0.3,6.6,3.5,23.2,6.5,27.3c2,2.7,5.2,4.4,5.9,7.6
			c7.6,11.6,11.1,23.2,6.2,34.5c-0.6-0.3-2.1-0.3-2.7-0.9c-0.6-0.6,0.6-3.8,0.4-5.1c-0.9-6.9-7.3-15.6-11.4-22.4
			c-2.9-3.5-6.5-8.2-9.8-12c-7.1-5.8-13.6-13.8-17.5-20.8c-2.2-4-3.5-8.2-5.4-12.2c-0.3,0.2-0.8,0.9-1.3,1.4
			c0.4,5.1-2.8,10.5,1.1,15.5c0.3-2.8-0.3-6.2,1.6-8.6c-0.2,5.2-1.4,10.5,3.5,15.6c0.6-2.5-0.8-5.1-0.6-7.6
			c2.4,2.4,1.1,7.1,2.5,10.4c1,0.9,1.5,1.9,2.3,2.8c0.4-2.1-1.3-4.9-0.4-7c1.8,3.8,1,8,3.8,12.1c0.3-2.5-0.3-4.9-0.1-7.4
			c2.6,3.5-0.1,8.8,3.8,13c1-2.7-0.9-5.9-0.4-8.8c2.9,3.9,0.4,9,3,13.4c1.2-3.3,0.6-6.7,0.7-9.9c2.8,4.5-1.1,10.8,2,16
			c1.9-4.1,1-8.8,1.2-13.1c2.8,5-0.9,11.7,0.4,17.1c0.5-1.1,0.1-2.6,1-3.6c-0.3,4.8-0.5,9.5,0,14.2
			C98.8,169.2,111.9,189.3,113.6,200.9L113.6,200.9z M142.2,252.6c-1.5-2.1-1-4.2-1.5-6.4c-1.4-6-6.5-20-15.4-17
			c-8.7,6.2-4.3,14.1-9.2,20.9c-0.3,1.8-1.1,3.7-2.5,5.6c4.4,3.4,8.4-3.8,6.7-7.6c1.6-4.9,0.9-10.9,5.8-15.3c0.9-0.8,2.7-1,3.5-1
			c3.8,0.2,5.3,6.3,7.7,8.4c0.8,4.2,2,9,4.4,12.9C141.9,253.2,142.4,252.7,142.2,252.6L142.2,252.6z M88.2,277.9
			c2.3,5,4,10.2,9.2,15.1c0.6,0,1.1,0.5,1.8,0.4C95.9,288.1,92.9,282.3,88.2,277.9L88.2,277.9z M123.1,266.1
			c1.2,0.1,2.4,0.6,3.6-0.1C125.7,265.3,124.3,266.1,123.1,266.1L123.1,266.1z M89.7,293.7c-2.1-2.4-3.7-5.2-5.5-7.7
			c-0.6,4,4.4,8.5,7.3,12.5c0.1-0.1,0.1-0.1,0.2-0.2C91,296.8,89.2,295,89.7,293.7L89.7,293.7z M229.5,161.7
			c1.1,0.8,2.2,1.1,3.3,0.8C231.7,162.1,230.6,161.6,229.5,161.7L229.5,161.7z M159.2,232.2c-0.2,0.2-0.4,0.4-0.1,0.6
			C159.4,232.6,159.4,232.5,159.2,232.2L159.2,232.2z M85.4,281c1,4.1,5.9,8.4,9.1,12.3c0.1-0.1,0.1-0.1,0.2-0.2
			C93.4,289,87.9,284.5,85.4,281L85.4,281z M137.7,251.1c-5.1,0.7-10.2,2.2-15.3,2.9C127.4,254.9,133,253.1,137.7,251.1L137.7,251.1
			z M156.5,225.3c-1,0.8-2,2.3-1.3,3.6c1.2,1.5,2.8,1.6,4,0.8C159.5,228.4,158.4,225.5,156.5,225.3L156.5,225.3z M135.3,250.3
			c0.8-0.2,3.4-0.5,3-1.5c-5.5,2.3-11.5,1.9-16.6,4.1C125.7,252.6,131.1,251.3,135.3,250.3L135.3,250.3z M128.3,256.8
			c0.4,0.2,0.8,0.1,1.3-0.1C129.2,256.4,128.8,256.4,128.3,256.8L128.3,256.8z M168.1,218.5c-10.1-14.6-0.3-32.3-0.7-32.9
			c-4.7,6.1-5,13.7-5.9,20c-1.8-7-0.9-13.8,3.4-20.7c-0.1-0.3-0.7-0.5-1.1-0.7c-4.1,6.3-3.5,12.6-4.8,19c-2.5-7,0.7-13.8,3.2-20.6
			c-5.1,5.8-5.4,13.4-6.2,19.7c-1.7-4.3-0.8-9.1,0.6-13.4c-0.3-3.2,1.1-6.3,2.6-9.4c-2.2-1-3.5,3.4-4.2,5.1
			c-3.8,8.8-2.4,19.1-0.9,27.8c2.8,3.3,2.3,9,6.5,11.1c-2.2-4.7-4.5-8.9-5-13.3c2.1,3.8,3.2,9,7,12.5c-3.1-5.2-4-10.3-5-15.4
			c0.6,0.5,0.6,1.5,0.8,2.2c0.8,1.2,0.9,2.4,1.3,3.6c1.2,2,2,4.9,3.6,6.9c2.4,2.9,2,0,1-1.5c-1.6-2.5-3.1-5.4-3.5-8
			c0.2,0.4,0.5,0,0.7,0.3c1.7,2.7,2.6,6,5.1,9C167.2,219.8,167.8,219.1,168.1,218.5L168.1,218.5z M137.4,246.7
			c0.2-0.1,0.2-0.7,0.1-0.9c-5.1,1.5-10.1,2-15.1,2.9c-0.2,0.3-0.3,0.7,0,1.1C127.4,248.7,132.4,248.1,137.4,246.7L137.4,246.7z
			 M172.7,205.2c-3.7,0.7-5,5.6-1.9,7.8C172.6,211.1,173.4,207.7,172.7,205.2L172.7,205.2z M215.4,157.9c1.1,2.1,3,4.2,5,5.1
			C218.7,161.2,217,159.4,215.4,157.9L215.4,157.9z M84.1,290.1c-0.5,0.7,0.4,1.8,0.7,2.3C85.4,292,84.4,290.7,84.1,290.1
			L84.1,290.1z M128.7,249.8c0.2,0.2,0.5,0.1,0.6-0.1C129.1,249.6,128.9,249.7,128.7,249.8L128.7,249.8z M84.3,282.7
			c-0.3,2.1,2.2,4.7,3.6,6.7C87.1,287.1,86.3,284.9,84.3,282.7L84.3,282.7z M84.3,272.1c-1.4,4.2,2.2,9.5,6.5,13.3
			C88.3,281,86.9,276.3,84.3,272.1L84.3,272.1z M123.8,243.5c4,0.4,8-0.4,12.1-1.6C131.8,242.4,127.8,242.9,123.8,243.5L123.8,243.5
			z M153.6,221c-1.9-1.7-4.2,2.8-1.8,4.2C154.1,225.7,154.9,222.3,153.6,221L153.6,221z M124.5,250.7c0.3,0,0.6-0.1,0.9-0.3
			C125.2,250.2,124.6,250.3,124.5,250.7L124.5,250.7z M132.7,240.6c-1.8,0-3.7-0.1-5.5,0.6c-0.8-0.1-2.8-0.5-2.7,0.7
			C127.2,242,130.2,241.3,132.7,240.6L132.7,240.6z M86.8,263.7c0.7,4.1,4.5,9,8.9,12.3C94.3,271.8,89.8,267.3,86.8,263.7
			L86.8,263.7z M125.1,239.6c2.9,0.4,6.3-0.3,9.3-0.9C131.3,238.9,128.2,238.8,125.1,239.6L125.1,239.6z M124.5,246.9
			c0.4,0.2,0.9,0.2,1.3-0.1C125.4,246.5,124.9,246.8,124.5,246.9L124.5,246.9z M137.7,234.3c0,0.2,0.1,0.7,0.4,0.5
			C138.2,234.7,137.9,234.3,137.7,234.3L137.7,234.3z M92.6,267.3c0.6,2.3,2.2,4.9,4.6,6.5C96.6,271.6,94.8,268.6,92.6,267.3
			L92.6,267.3z M123.2,245.6c0.9,0.4,1.8-0.2,2.8-0.4C125.2,245.2,123.7,244.5,123.2,245.6L123.2,245.6z M85.1,269.6
			c1,3.1,2.8,6.6,5.6,9.2C89.3,275.9,88.4,272.2,85.1,269.6L85.1,269.6z M123.6,246.9c-0.2,0-0.5,0.1-0.7,0.2
			C123.2,247.5,123.7,247.3,123.6,246.9L123.6,246.9z M133.3,236.9c-1-0.2-1.9,0.3-2.9,0.5C131.3,237.6,132.5,237.4,133.3,236.9
			L133.3,236.9z M214.9,157.2c-0.4,0.3,0.1,0.6,0.4,0.5C215.2,157.5,215,157.4,214.9,157.2L214.9,157.2z M102.1,253.1
			c-2.2-1.5-4.4-2.9-6.7-4.2c0.9,3.2,2.1,8,6.2,9.8c-1.3-2.4-3-4.9-3.2-7.3c0.3,0,0.5-0.2,0.7,0c1.7,3,2.9,9.1,7,9.4
			C104.9,258.3,102.4,255.6,102.1,253.1L102.1,253.1z M149.6,213.1c-2.7-0.6-3.5,3.1-1.7,4.9C150.9,219.1,152.7,215.2,149.6,213.1
			L149.6,213.1z M114.7,249.6c-0.6,0-0.8,0.8-1,1.3C114.5,251.2,114.6,250.2,114.7,249.6L114.7,249.6z M126.5,236.4
			c1,0,2-0.1,3.1-0.6C128.7,235.6,127.3,235.3,126.5,236.4L126.5,236.4z M84.7,266.3c0.5,2.2,2.8,4.4,4.5,6.6
			C89.4,270.8,86.9,267.5,84.7,266.3L84.7,266.3z M89.6,259.9c0.4,2.3,1.9,5.3,4.3,7.1C93,264.7,91.9,262.5,89.6,259.9L89.6,259.9z
			 M207.6,156.2c0.4,0.2,0.3,0.7,0.6,0.7C208.1,156.7,208,155.9,207.6,156.2L207.6,156.2z M91.4,259.6c0.2,1.6,2.4,3.6,3.9,4.6
			C94,262.6,93.9,259.6,91.4,259.6L91.4,259.6z M86.5,260.7c0.8,2.3,2.8,4.1,4.5,6.4C91,265,88.4,261.9,86.5,260.7L86.5,260.7z
			 M148.8,210.4c0.8-0.9,0.4-2-0.8-2.6c-0.1-0.3,0.2-0.6,0.2-0.9c-0.8-1.3-1.8-0.4-2.7-0.5C143.2,208.6,146.5,212.8,148.8,210.4
			L148.8,210.4z M96.8,257.7c0.1,0.1,0.2,0.2,0.3,0.3c0.1-0.1,0.1-0.1,0.2-0.2C97.2,257.6,96.9,257.4,96.8,257.7L96.8,257.7z
			 M85.7,263.4c-0.2-0.1-0.4,0.1-0.6,0.3c0.2,0.6,0.5,1.4,1.1,1.9C86.5,264.9,85.6,264.1,85.7,263.4L85.7,263.4z M87.9,258.3
			c-0.2-0.1-0.5,0.3-0.5,0.5c0.2,0.7,0.7,2,1.6,2.4C88.5,260.2,88.5,259,87.9,258.3L87.9,258.3z M146.2,200.4c0-0.3,0.2-0.5,0-0.8
			c-1.6,0.8-1.9,2.9-0.8,4.3C148.7,205.4,149.9,200.5,146.2,200.4L146.2,200.4z M94.5,251.1c-0.6,0.8,0.5,1.6,1.2,1.9
			C95.4,252.4,95.5,251.2,94.5,251.1L94.5,251.1z M207.7,138.1c-0.1,1.3,0.6,4.3,0.9,5.6C211.4,144,210.9,139.3,207.7,138.1
			L207.7,138.1z M207.4,144c-0.4-1.4-0.3-6-1.8-6c-0.1,2.1,0.7,4.2,1,6.4C207,144.4,207.5,144.5,207.4,144L207.4,144z M82.7,262.9
			c-0.2,0.1-0.1,0.2,0,0.5C82.8,263.2,82.8,263,82.7,262.9L82.7,262.9z M89.9,255.1c0,0.3,0.2,0.6,0.6,0.5
			C90.4,255.3,90.1,254.9,89.9,255.1L89.9,255.1z M204.2,138.3c-0.4,2.1,0.4,4.2,0.6,6.2C205.9,143.3,204.2,140.2,204.2,138.3
			L204.2,138.3z M148.8,197.8c0.9-0.8-1.1-4.6-2.8-3.9C143.8,195.7,147.3,199.4,148.8,197.8L148.8,197.8z M202.7,139.1
			c-3,1.2-1.5,4.7,1.2,5.7C203.7,143.4,203.1,140.5,202.7,139.1L202.7,139.1z M86,254.6c-0.1,0.1-0.2,0.3-0.1,0.5
			C86.1,254.9,86.2,254.8,86,254.6L86,254.6z M145.5,190.8c3.4,3,4.7-4.7,0.4-4.3C144.8,187.7,144.4,189.7,145.5,190.8L145.5,190.8z
			 M95.5,240.7c0.2,0.2,0.4,0.3,0.5,0.1C95.9,240.5,95.7,240.4,95.5,240.7L95.5,240.7z M102,234.6c-0.2-0.2-0.5-0.1-0.7,0.1
			c0.1,0.1-0.1,0.2,0.1,0.3C101.7,235.1,101.8,234.9,102,234.6L102,234.6z M95.6,238.6c4.9,1.5,4.4-6.9-0.2-5.8
			C94.5,234.7,93.9,236.7,95.6,238.6L95.6,238.6z M100.6,226.9c-3.6,2.6,0.6,8.1,3.7,3.5C105.7,228.3,102.3,225.6,100.6,226.9
			L100.6,226.9z M106.6,226.4c-0.2-0.1-0.4,0-0.6,0.2c0.1,0.2,0,0.4,0.3,0.6C106.5,226.9,106.7,226.7,106.6,226.4L106.6,226.4z
			 M149.2,179.9c-2.3-2-4.1,4.8-0.6,4.6C149.9,183.4,150.6,181.1,149.2,179.9L149.2,179.9z M103.6,218.2c-0.5,1.3-0.3,2.7,0,4.1
			c3.7,4,5.8-2.6,1.8-3.9c-0.2-0.3-0.3-0.5-0.6-0.8C104.4,217.6,104,217.8,103.6,218.2L103.6,218.2z M154,175.8
			c-1.3-3.8-5.9,0.7-1.7,1.7C153.1,176.9,153.3,176.3,154,175.8L154,175.8z M87.6,232.6c-0.6,1.1-0.5,2.4,0.4,3.5
			c0.2,0.2,0.5-0.3,0.7,0c0.4,0.4,0.3,0.9,0.6,1.3C91.6,237,89.4,232.8,87.6,232.6L87.6,232.6z M99.1,218.7c0.5,1.2-0.8,2.5-0.3,3.6
			c4.7-10.7,4.7-22-0.9-32.5c1.6,5.9,3.5,11.8,2.9,17.5c-2.7-7.3-0.9-16.2-8.1-22.5c4.5,6.5,7,13.6,5.7,19.9
			c-1-6.4-1.6-13.3-7.4-19.5c3.5,5.6,5.9,11.9,5.2,17.7c-1.8-5.6-1.5-11.6-6.8-17.1c-0.5,0.3-1.1,0.6-1.6,1.1
			c5.4,4.6,6.6,11.9,6.1,17.5c-0.9-4.1-1.6-8.2-3.3-12.3c-1.1-1.5-2.6-5.2-4.8-3.8c5,4,7.4,11.6,6.6,16.6
			c-1.1-4.2-2.2-10.1-5.2-14.2c-0.7-0.8-1.7-1.3-2.5-0.9c3.5,3.8,5.8,8.3,6.1,12.4c-2.2-3.7-3.5-8.7-7.3-11.4
			c-2.8,2-0.4,1.3-0.4,1.3c4.5,3.8,7.3,10.9,6.7,15.9c-0.6,5.2-1,11.5-7.5,14.9c-0.8,0-1.4-0.4-2.1-0.6c0.6,1.2,1.9,2.7,3.1,3.5
			c4.4-2.5,5.8-7.6,8.3-10.6c-0.3,2.5-2,5.8-4.1,8.4c-0.9,1-3.2,2.1-2.6,3.4c4-2.7,7.4-8.6,9.3-12.2c-0.7,4.2-4.3,8.9-7.8,13.1
			c4.3-1.7,5.5-7.5,7.9-10.6c-0.8,4-2.7,9.5-7.1,12.1c0.8,0.3,1.6-0.3,2.5-0.4c2.6-3.4,4.5-7.6,6.4-11c-0.5,3.9-3,7.7-5.3,11.6
			c3.7-3.1,4.1-7.8,6.1-11.1c-0.1,4.4-3.1,8.7-4.9,13C96.6,228.1,97.1,222.8,99.1,218.7L99.1,218.7z M151.5,173.2
			c0.3,0.2,0.7,0,1-0.1C152.4,172.6,151.5,172.8,151.5,173.2L151.5,173.2z M104.7,215c1,0.6,3.4,0.5,4-1.5c-0.4-1.6-1.4-6.3-4.2-5.1
			C104.7,210.1,102.5,213.8,104.7,215L104.7,215z M83.2,235.4c-0.2,0.4-0.1,1.1,0.3,1.4C83.7,236.4,83.3,235.9,83.2,235.4
			L83.2,235.4z M83.5,229.4c-0.2,1.2-0.4,2.3-0.3,3.6C84.9,232.5,83.9,230.4,83.5,229.4L83.5,229.4z M109.1,205.8
			c-0.4,0.2-1.1,0.4-1.3,0.8c0.3,0.3,0.6,0.4,0.9,0.5C109,206.7,109.3,206.3,109.1,205.8L109.1,205.8z M104.5,205
			c2.2,2.6,7-3.8,3-5.6c-1,0-2.1,0.2-3.1,0.3C104.9,201.2,103.5,203.7,104.5,205L104.5,205z M83.6,219.1c-1.1-1.5-0.5-2.8-1.7-4.2
			C76.7,214.7,81.2,224.7,83.6,219.1L83.6,219.1z M103.8,191.5c-1.7,1.9,1.5,6.9,4.1,4C109.8,193.6,105.2,189.9,103.8,191.5
			L103.8,191.5z M141.6,159.2c-0.6,0.7-0.7,2.1-0.2,2.8C141.8,161,141.5,160.2,141.6,159.2L141.6,159.2z M142.1,154.5
			c-0.5,0.6-0.4,1.1-0.4,1.7C142.2,155.7,142.1,155.2,142.1,154.5L142.1,154.5z M142.7,152.4c-0.4,0.3-0.5,0.9-0.4,1.3
			C142.3,153.3,142.8,152.9,142.7,152.4L142.7,152.4z M101.4,183.5c-2.2,1.6-0.4,3.4,0.8,5.2C106.6,189.5,104.9,182.6,101.4,183.5
			L101.4,183.5z M98.9,181.8c-0.2-0.9-0.8-2.1-1.9-2.7c-0.4,0.2-0.8,0.1-1.2,0.3C94.5,180.9,98.4,184.4,98.9,181.8L98.9,181.8z
			 M116.9,105.1c-0.3-1.3-3.6-5.9-5-4.7c-0.5,0.5-0.3,3.7-0.3,4.8c0.7,16.5,10.3,22.7,6.1,40.7c2.4,3.6,4.2,7.2,6.3,10.7
			c0.1-0.1,0.1,0,0.2,0c0.3-1.6,0.8-3.2,0.8-4.9c-8.1-13.4-3.2-26.4-0.7-39.6c-1.2,0.3-3.3-1.2-4.3-2.5c-0.5,1.8-2.4,4.2-4,5.3
			C116,111.8,117.6,108.2,116.9,105.1L116.9,105.1z M93.2,178.3c-2-3.4-6.7,0.8-2.4,3.2C92.5,182,93.8,179.4,93.2,178.3L93.2,178.3z
			 M88,182.2c-0.2,0.3-0.5,0.8-0.1,1.1C88.7,183,88.9,182.3,88,182.2L88,182.2z M132.7,101.3c3.6,12.7-8.1,25.7,1,38.1
			C138.5,134.1,145.5,102.3,132.7,101.3L132.7,101.3z M159,102.3c-1.1,6.1-3.8,12.2-5.7,18.3c1.5-2,1.5-4.2,3-6
			C157.1,110.4,159.5,106.4,159,102.3L159,102.3z M179.5,86.7c-2.6,4.7-6.7,9.6-7.1,14.2c0.1-0.1,0.1-0.1,0.2-0.2
			C175.1,96.1,181,91.2,179.5,86.7L179.5,86.7z M130,138.8c-0.2,0.1,0,0.6,0.2,0.5C130.1,139.2,130.2,139,130,138.8L130,138.8z
			 M125.8,136.8c-1,1.9,0.5,3.8,0.8,5.8C126.5,140.6,126.5,138.7,125.8,136.8L125.8,136.8z M128.2,136c-0.1,1.4-0.1,2.8,0.7,4.3
			C129.2,138.8,128.5,137.1,128.2,136L128.2,136z M158.3,111.2c-0.3,0.2-0.4,0.9-0.1,0.8C158.2,111.7,158.4,111.4,158.3,111.2
			L158.3,111.2z M127.1,137c-0.4,1.3,0.4,2.8,0.7,3.9C127.5,139.6,127.8,138,127.1,137L127.1,137z M154.2,114.1
			c-0.2,0.3-0.5,0.9-0.2,1.1C154,114.8,154.2,114.5,154.2,114.1L154.2,114.1z M158.4,110.1c-0.1,0.2-0.1,0.5,0.1,0.4
			C158.7,110.5,158.6,110.3,158.4,110.1L158.4,110.1z M155.4,110.6c-0.4,1-0.8,2.1-1,3.1C154.8,112.7,155.6,111.6,155.4,110.6
			L155.4,110.6z M129.3,136c0,0.4-0.1,0.8,0.1,1.2C129.6,137.2,130,135.9,129.3,136L129.3,136z M175.3,91.8c1.3-3.2,5.3-6.4,3.7-9.6
			C177.5,85.2,174,89.2,175.3,91.8L175.3,91.8z M156.4,107.3c-0.6,0.7-0.7,1.9-0.3,2.2C156,108.8,156.6,108.1,156.4,107.3
			L156.4,107.3z M127.9,120c-0.3-0.2-0.5-0.1-0.6-0.5c1.1-5.9,1.6-11.9,0.9-17.8c-0.9,11.4-3.7,23-1.4,34.6c0.1-0.1,0.1,0,0.2-0.1
			C126.2,130.7,126.9,125.3,127.9,120L127.9,120z M156.8,97.7c-0.4,3.8-3.4,8.2-2.4,11.7C155.3,105.6,157.3,101.6,156.8,97.7
			L156.8,97.7z M158,100c-0.4,2.2-1.4,4.4-1.4,6.5C157.7,104.6,158,102.2,158,100L158,100z M122.7,135.4c-0.7,0.3-0.2,1.2-0.2,1.8
			C122.7,136.6,123.2,136,122.7,135.4L122.7,135.4z M178,76.6c-1.9,3.1-2.8,6.3-2.6,9.4C177.7,82.9,179.8,79.8,178,76.6L178,76.6z
			 M123.9,133.8c-0.2,0.2-0.2,0.5-0.1,0.8C124.2,134.5,124.2,134,123.9,133.8L123.9,133.8z M128.1,123.7c-0.5,2.4-0.8,4.7-0.3,7.1
			C128.2,128.5,129.1,125.9,128.1,123.7L128.1,123.7z M122.8,134.5c-0.1,0.2-0.2,0.3-0.1,0.5C122.9,134.9,122.8,134.8,122.8,134.5
			L122.8,134.5z M125.4,122.8c-2,3.3-1.2,6.9-0.9,10C124.8,129.5,125.3,126.2,125.4,122.8L125.4,122.8z M158.5,96.4
			c-0.1,0.5-0.2,0.9,0,1.4C159.2,97.9,158.8,96.8,158.5,96.4L158.5,96.4z M155.7,89.2c-0.3,4.2-2,8.4-1.3,12.6
			C156.1,97.9,156.5,93.4,155.7,89.2L155.7,89.2z M98.3,144.5c0.5,2.6,0.5,5.3,1.4,7.9C100.4,150,99.2,146.9,98.3,144.5L98.3,144.5z
			 M176.1,77.6c-0.2,0.2-0.4,0-0.6,0.3c-0.1,0.3-0.1,0.6,0.1,1C176,78.5,176.2,78,176.1,77.6L176.1,77.6z M157.4,94.6
			c-0.4,0.4-0.3,0.9-0.3,1.4C157.4,95.5,157.5,95,157.4,94.6L157.4,94.6z M126.1,112c-1.6,5.6-3.1,11.5-3.4,16.9
			C123.7,123.2,125.7,117.7,126.1,112L126.1,112z M176.6,72.4c-0.2,1.7-0.9,3.6-0.3,5C177.9,75.9,177,74.1,176.6,72.4L176.6,72.4z
			 M128.5,119.7c-0.5,0.4,0,1-0.6,1.4c0.3,0.4,0,0.9,0.4,1.3C128.7,121.8,128.9,120.3,128.5,119.7L128.5,119.7z M130.1,107.2
			c-0.2,3.9-1.7,7.7-1.2,11.5C129.9,114.9,130.5,111,130.1,107.2L130.1,107.2z M97.2,147.2c0.1,0.2-0.1,0.5,0.2,0.7
			C97.6,147.8,97.5,147.3,97.2,147.2L97.2,147.2z M112.9,125.8c-0.4,2.1-0.2,5.2-0.1,7.1C113.1,130.5,113.7,128.1,112.9,125.8
			L112.9,125.8z M114.4,129.2c-0.3,0.6-0.1,1.2-0.1,1.8C114.7,130.7,114.8,129.8,114.4,129.2L114.4,129.2z M171.9,73.5
			c-0.3,0.3,0,0.6,0.1,0.9C172.2,74.2,172.2,73.8,171.9,73.5L171.9,73.5z M92.9,138.2c1.4,3,0.4,6.7,2.9,9.2
			C95.8,144.3,94.2,141.3,92.9,138.2L92.9,138.2z M95.3,141.2c0.9,1.4,0.9,3.1,1.7,4.4C97,144.1,96.8,142.2,95.3,141.2L95.3,141.2z
			 M153.8,82.7c-0.1,2.7,0.3,5.2,0.3,7.9C154.4,88.2,155.7,85.1,153.8,82.7L153.8,82.7z M110.6,131c0.2,0.1,0.5,0.7,0.7,0.5
			c1.4-5.2-0.4-10.4-2.3-15.5C109.8,120.9,111.4,126,110.6,131L110.6,131z M131.4,111.6c-0.2,0.2-0.2,0.5-0.1,0.7
			C131.6,112,131.4,111.7,131.4,111.6L131.4,111.6z M155.9,86.8c-0.5,0.2-0.4,0.9-0.1,1.3c0.2,0,0.5,0,0.7-0.2
			C156.4,87.5,156.2,86.9,155.9,86.8L155.9,86.8z M171.1,68.8c-0.1,1.2,0.2,3.1,0.8,4C171.7,71.5,171.6,69.9,171.1,68.8L171.1,68.8z
			 M151.9,80.6c0.6,3.4,0.1,6.7,0.8,10.1c0,0.1,0.1,0,0.2,0C152.6,87.4,153.2,83.8,151.9,80.6L151.9,80.6z M113.9,124.7
			c0,0.8,0.3,1.6,0.8,2.4c0.1-0.1,0.1,0,0.2-0.1C114.8,126.3,114.6,125.5,113.9,124.7L113.9,124.7z M175.3,67.8
			c-0.3,0.1-0.2,0.7,0,1c0.1,0.1,0.1,0,0.2-0.1C175.4,68.4,175.5,68.1,175.3,67.8L175.3,67.8z M131.6,106.5
			c-0.7,1.5-0.1,2.9-0.2,4.4C131.7,109.6,131.7,108,131.6,106.5L131.6,106.5z M103.8,111.5c-1.2,6.9,1.3,13.8,4.6,20.8
			c0.1-0.1,0.1-0.1,0.1-0.1C108.7,125.3,106.1,118.4,103.8,111.5L103.8,111.5z M91,136.2c0.5,2.3-0.2,6.3,2.2,8.4
			C92.7,141.7,91.9,138.9,91,136.2L91,136.2z M112.8,121.3c-0.1,0.7,0.1,1.8,0.6,2.3C113.4,122.9,113.2,122.2,112.8,121.3
			L112.8,121.3z M149,75.9c0.7,3.7-0.1,7.3,1.8,11.1C151,83.5,151,79.6,149,75.9L149,75.9z M173.9,63.8c-0.2,0.2,0,0.8,0.3,0.6
			C174.1,64.2,174.1,64,173.9,63.8L173.9,63.8z M171.9,64.7c0.1,0.2,0.2,0.9,0.5,0.6C172.2,65.1,172.1,64.7,171.9,64.7L171.9,64.7z
			 M105.8,111.9c1,4.4,2.7,8.9,3.5,13.3C109.3,120.9,108.1,116.2,105.8,111.9L105.8,111.9z M168.7,58.4c0.7,2.7,0.3,5.7,1.6,8.2
			C170.6,63.9,169.9,61.2,168.7,58.4L168.7,58.4z M125.3,102.9c-2.2,2.1-2,5-0.5,7.1C125.9,107.9,125.6,105.2,125.3,102.9
			L125.3,102.9z M130,104.5c-0.1,0.2-0.2,0.3-0.1,0.5C130.1,104.8,130.1,104.6,130,104.5L130,104.5z M87.6,131.4
			c0.7,3-0.1,6.9,2.6,9.7C90.2,137.9,89.7,134.7,87.6,131.4L87.6,131.4z M151.7,79.8c0.1,0.1-0.1,0.5,0.2,0.5
			C151.8,80.2,152,79.8,151.7,79.8L151.7,79.8z M145.3,71.3c2.3,4,0.5,8.2,3.1,12.1C148.3,79.4,148.2,74.7,145.3,71.3L145.3,71.3z
			 M127.1,102.3c-0.2,0.3-0.2,0.6,0,0.9C127.4,102.9,127.5,102.4,127.1,102.3L127.1,102.3z M91.7,121.3c0,4.2,0.2,8.4,2.2,12.6
			c0.1-0.1,0.1,0,0.2-0.1C92.4,129.6,92.7,125.4,91.7,121.3L91.7,121.3z M128,99.5c-0.5,0-1.3,0-1.6,0.5c0.1,0.1,0.1,0.1,0.1,0.2
			C126.9,100.6,128.3,100.3,128,99.5L128,99.5z M166.2,56.9c-0.1,1.4,0.4,3.4,1.6,4.4C167.2,59.9,167.5,58.2,166.2,56.9L166.2,56.9z
			 M85.3,129c0,2.6-0.6,5.7,1.7,8C87,134.3,86.5,131.4,85.3,129L85.3,129z M108.8,114.9c-0.2,0.2-0.1,0.6,0.1,0.6
			C108.9,115.3,109,115,108.8,114.9L108.8,114.9z M137.1,61.2c1.1,3.5-0.1,7.1,2.5,10.5c0.2-2.4-1.5-5.6-0.7-7.9
			c2.4,3.7,0.8,8.1,3.8,11.9c0.7-2.9-1.2-5.8-1.3-8.7c3.9,3.6,0.5,8.4,4.3,12.5C146.4,73.6,143.2,67.2,137.1,61.2L137.1,61.2z
			 M108.2,111.4C107.8,113.7,109.3,113.7,108.2,111.4L108.2,111.4z M190.7,10.2c4.5,4.4,8,9,11.8,13
			C200.1,18.5,195.1,13.7,190.7,10.2L190.7,10.2z M82.9,135.8c-0.3,0.3,0.4,1.1,0.7,0.9C83.4,136.5,83.3,136,82.9,135.8L82.9,135.8z
			 M167.3,55.4c0.2,0.2,0,0.9,0.5,0.7C167.7,55.8,167.5,55.4,167.3,55.4L167.3,55.4z M166.6,53.6c-0.1,0.3,0,0.6,0.3,1
			C167.4,54.5,167,53.7,166.6,53.6L166.6,53.6z M33.7,179.9c0.4-1.2,1.1-2.5,1.5-3.6c-3.6,5-9.1,10.2-14,12
			c5.8-4.7,14.7-10.9,14.3-17.4c-3,4.9-7.6,11.1-12.2,14.5c1.3-2,3.7-4,5-6.2c-4.8,5.1-10.7,6.4-14.4,11.8c1.4-1.2,2.8-2.9,4.2-2.7
			c-1.7,1.6-5.3,3.9-5.3,6.3C19.9,189,28.2,188,33.7,179.9L33.7,179.9z M109.9,105c0,0.7-0.1,1.4,0.2,2.1
			C110.3,106.4,110,105.4,109.9,105L109.9,105z M83.3,127.7c-1,1-0.6,2-1,3c0.4,0.4,0.5,1.1,1,1.4C83.9,130.7,84.2,129.2,83.3,127.7
			L83.3,127.7z M35.4,175.7c0.1,0.1-0.2,0.2,0,0.3c0.1-0.2,0.2,0,0.4-0.2C35.6,175.6,35.5,175.6,35.4,175.7L35.4,175.7z M162.8,53.1
			c-0.3,0.2,0,0.6,0.3,0.7C163.5,53.5,163.1,53,162.8,53.1L162.8,53.1z M110.2,101.1c-1,0.8-0.3,2.4-0.2,3.2
			C110,103.3,110.4,101.9,110.2,101.1L110.2,101.1z M84.4,124.8c-0.5,0.7-0.3,1.4,0,2.1C84.9,126.3,85,125.5,84.4,124.8L84.4,124.8z
			 M83.5,122c-1.1,2.5-2.3,4.9-2.7,7.4C81.9,127.1,84,124.2,83.5,122L83.5,122z M105,105.4c-0.2,0.2-0.2,0.5-0.2,0.7
			C105,106,105.2,105.7,105,105.4L105,105.4z M107.1,101.6c-0.2,0-0.5,0.3-0.5,0.5c0.1,0.1,0.1,0.1,0.2,0.2
			C107.1,102.3,107.3,101.9,107.1,101.6L107.1,101.6z M35.3,166.9c-2.8,2-3.1,5.7-5.4,7.9c0-1.1,1-2.1,1-3.2
			c-2.2,1.7-4.3,3.8-6.8,5.7c1,0.3,2-1.2,3-0.4c-3,2.4-9.4,5.8-11.8,10.1C21.9,181.4,33.9,175.8,35.3,166.9L35.3,166.9z M82.6,119
			c-2.1,2.3-2.5,5-3.5,7.5c0.1,0.4,0.3,1,0.6,1.2C80.7,124.8,82.8,122,82.6,119L82.6,119z M9.4,191.3c-0.2,0.7-0.3,1.5-0.2,2.2
			C10,192.8,9.4,192.1,9.4,191.3L9.4,191.3z M33.6,164.3c-1.8,2.4-3.8,4.6-5.6,7c-6.2,3.7-13.4,10-17.3,16.4c0,0.7-0.1,1.4,0.3,2.1
			c2.3-4,6.9-7.8,10.1-10.7c-0.6,0.1-1.1,0.8-1.7,0.5C24.4,175.6,33.6,170.1,33.6,164.3L33.6,164.3z M21.7,178.9
			c0.5-0.1,1-0.6,1.4-0.9C22.7,178.1,21.8,178.4,21.7,178.9L21.7,178.9z M137,68.1c-0.5-3.3-1-6.6-1.5-9.8c-2.6-4-3.9-7.9-5.3-11.8
			c-0.6,4.1-3.1,8.6,0.1,12.5c0.1-2.9-0.6-6.1,0.8-8.8c0.8,4.3-0.9,8.4,1.8,12.7c0.6-2.5-0.9-5.2,0.3-7.5
			C135.1,59.3,132.1,64.5,137,68.1L137,68.1L137,68.1z M82.2,114.2c-1.3,3-6,6.8-3.8,9.9C79.8,120.8,82.8,117.5,82.2,114.2
			L82.2,114.2z M33.8,164.1c0.2-0.2,0.3-0.3,0.5-0.4C33.9,163.3,33.8,163.9,33.8,164.1L33.8,164.1z M26.2,168.6
			c-5.7,3.7-14.5,10.2-15.9,16.9C14.5,179.1,22.7,174.9,26.2,168.6L26.2,168.6z M169.7,0.4c6.6,2.8,13,8.4,19.6,11.7
			C182.9,6.7,176.5,0.4,169.7,0.4L169.7,0.4z M82.2,108.7c-2,3.5-5.6,6.9-5,10.5C79.4,115.9,83.4,112,82.2,108.7L82.2,108.7z
			 M41.3,146.3c0.4,2-1.8,4.2-0.7,6C41.5,150.3,41.9,148.4,41.3,146.3L41.3,146.3z M23.6,166.8c1.1,0.4,2.3-1.6,3.3-2.3
			C25.9,165,24.5,166,23.6,166.8L23.6,166.8z M38.9,152.2c-0.2-0.1-0.6,0.2-0.6,0.5C38.7,153.2,39.5,152.7,38.9,152.2L38.9,152.2z
			 M83.4,102.4c-2.4,3.6-6.4,7.6-6,11.3C79.5,110,83.5,106.3,83.4,102.4L83.4,102.4z M38.4,150.9c-0.8-2.3-0.9-4.6-1.5-6.8
			c-1.3,1.9,0.1,4.8,0.7,7.1C37.9,151.3,38.2,151.2,38.4,150.9L38.4,150.9z M38.5,143.3c-0.2,1.9-0.1,4.4,0.8,6.6
			C40.6,148.1,40.8,144.4,38.5,143.3L38.5,143.3z M15.7,171.2c1.4-0.6,2.8-1.8,4.3-3C18.4,168.7,17.2,170.2,15.7,171.2L15.7,171.2z
			 M36.6,151.8c-0.8-2.6-1.1-5.2-1.8-7.8c-1.6,2.4-0.1,5.3,0.7,7.9C35.9,152,36.2,152.2,36.6,151.8L36.6,151.8z M87.6,92.5
			c-3.5,4.7-9.4,10.5-9.5,15.1c0,0,0.1-0.1,0.1-0.1C81.2,102.7,86.7,97.6,87.6,92.5L87.6,92.5z M163.2,0.6
			c5.7,1.6,11.3,5.7,16.9,7.6C174.8,4.3,168.7-0.3,163.2,0.6L163.2,0.6z M61.7,114.2c-1.7,2.5-2.8,5-0.3,7.5
			C62,119.2,61.8,116.7,61.7,114.2L61.7,114.2z M39.1,132.4c0.1,2.8,0.4,5.6,1.1,8.4C40.4,138.3,40.3,135.2,39.1,132.4L39.1,132.4z
			 M89.2,89.5c-1-1.1,0.7-2.1,0.6-3.2C85.8,91,78.8,96,79.3,101.5C82.5,97.2,85.3,93.4,89.2,89.5L89.2,89.5z M38.6,140.3
			c0.1-4.9-1.1-10-3.2-15c0-0.2,0.3-0.5,0.4-0.7c-0.6-1-1-1.8-1.5-2.6c0.7,4,2.1,8.2,3.3,12.2c-0.2,0.3-0.5,0.2-0.8,0.5
			C37.5,136.4,36.8,140.1,38.6,140.3L38.6,140.3z M128.1,44.8c0.2,0.1,0.3,0,0.5,0c0.4,0.3,0,0.4,0.4,0.8c0.7-1.3,0.6-2.6,0-3.9
			c-1.2,3.9-4.3,8.4-1.1,12.1C128.1,50.7,127.4,47.7,128.1,44.8L128.1,44.8z M34.7,134.1c-0.1,1.8,0.8,4,1.1,5.9
			C35.7,138.3,35.7,136.1,34.7,134.1L34.7,134.1z M156.6,1.5c5.8,0.4,11.5,5.8,17.3,5.4C168.4,3.8,162.4,0.2,156.6,1.5L156.6,1.5z
			 M62.1,110.9c0.3-0.2,0.6,0.1,0.8-0.2c0.4-0.5,0-1,0.4-1.5c0.5-0.2,0.6,0.5,1.1,0.7c1.2-1.5-0.4-3.5-0.5-5.1
			c-4.1,2.7-4.1,6.6-3.7,10C61.2,113.7,62.1,112.1,62.1,110.9L62.1,110.9z M92,81.6c-3,3.1-8.1,7.1-9.6,10.8
			C85.7,89.1,91.3,85.5,92,81.6L92,81.6z M58.5,110.8c-1.1,1-1.5,2.6-0.3,3.8C58.5,113.3,58.8,112,58.5,110.8L58.5,110.8z
			 M97.2,71.7c-3.8,4.8-8.6,9.9-12,15C89.6,82.2,96.7,77.1,97.2,71.7L97.2,71.7z M129.5,33.5c-2.8,4.2-3.6,8.7-4.7,12.7
			c0.2,0.5,0.3,1.7,0.8,1.8C126.4,43.2,129.5,38.4,129.5,33.5L129.5,33.5z M167.2,6.5c-4.3-2.2-8.7-4.2-13.1-3.7
			C158.5,3.4,163,7.1,167.2,6.5L167.2,6.5z M99.5,64.5C96.1,70.2,89.2,76,87.3,81.9c0.1-0.1,0.2-0.2,0.2-0.2
			C91.6,75.9,97.8,70.4,99.5,64.5L99.5,64.5z M59.5,104.2c-2.3,2-3.4,4.5-2.6,6.7C59.2,108.9,59.2,106.4,59.5,104.2L59.5,104.2z
			 M63.4,100.2c-2.7,1.4-3.1,4.3-2.5,6C63.3,104.3,64.5,102.3,63.4,100.2L63.4,100.2z M33.3,126.8c-1.4-1.2-1.1-3.8-2.4-4.8
			c-1.1-0.9-2.4-1-3-2.7c1.6,3.4,5.1,7.4,7.3,10.8C35.1,128.5,34.3,127.6,33.3,126.8L33.3,126.8z M133,24.3
			c-5.3,5.7-11.3,12.7-8.7,19.3C125.3,37.2,129.9,30.7,133,24.3L133,24.3z M146.8,4.3c5,1.3,10.1,2.6,15.2,2.6
			C157.1,5.2,151.9,2.3,146.8,4.3L146.8,4.3z M100.5,58.8c-2.6,4.3-8,8.6-8,12.9C95.8,67.3,100.4,63.2,100.5,58.8L100.5,58.8z
			 M59.8,99.3c-2.3,1.5-2.9,3.8-2.8,5.6C59.2,103.3,60.3,101.2,59.8,99.3L59.8,99.3z M63.3,98.8c0-0.8,0-1.7-0.4-2.5
			c-2.2,0.9-2,2.9-2,4.4C61.7,100.5,62.5,99.5,63.3,98.8L63.3,98.8z M55.7,104.7c-0.4,0.2-0.2,0.8,0,0.7
			C55.7,105.2,56,105,55.7,104.7L55.7,104.7z M28.9,113.8c1.5,3.8,3,7.6,4.8,11.5C32.6,121.5,31.7,117.2,28.9,113.8L28.9,113.8z
			 M152.9,8.7c0.7,0.2,1.5,0,2.1-0.2C154.3,8.3,153.3,8.2,152.9,8.7L152.9,8.7z M56.1,99.6c-1.2,0.8-1.5,2.2-0.9,3.3
			C56.3,102,56.1,100.6,56.1,99.6L56.1,99.6z M62.8,92.5c-0.5,0.7-0.8,1.9-0.9,2.9C63.6,95.2,63,93.7,62.8,92.5L62.8,92.5z
			 M60.7,94.8c-1.9,1-2.6,2.9-2.6,4.3C59.5,98.1,61.2,96.3,60.7,94.8L60.7,94.8z M98.2,57.6c-1.5,2-4.8,4.7-4.3,7
			C95.5,62.6,97.3,60,98.2,57.6L98.2,57.6z M98.2,60.1c-0.2,0.2-0.3,0.3-0.3,0.5C98,60.4,98.3,60.3,98.2,60.1L98.2,60.1z
			 M100.9,55.6c-1.4,1.2-1.7,2.8-2.5,4.3C99.7,58.5,100.5,57.1,100.9,55.6L100.9,55.6z M142.4,10.1c-5,1.1-12.1,2.6-14.1,8
			c7.7-4.5,15.4-7.3,23-9.2C148.8,8.9,145.4,9.3,142.4,10.1L142.4,10.1z M123.7,34.1c-0.2,0.2-0.3,0.5,0,0.8
			C123.9,34.7,124,34.4,123.7,34.1L123.7,34.1z M134.8,19.9c-4,4.4-7.9,7.8-9.8,12.8C127.6,28.4,131.8,24.1,134.8,19.9L134.8,19.9z
			 M55,97.4c0.1,0.6-0.3,1.1,0,1.8C55.8,98.6,55.7,97.6,55,97.4L55,97.4z M99.7,55.3c-0.4,0.5-0.9,1-0.9,1.5
			C99.1,56.3,99.7,55.8,99.7,55.3L99.7,55.3z M58.2,93.5c-1.2,1.3-2.4,2.5-1.8,3.8C57.5,96.2,58.4,94.9,58.2,93.5L58.2,93.5z
			 M96.4,57.9c-0.2-0.2-0.6,0-0.6-0.3c0.4-1.3,1.5-3.9,2.9-4c0.1-0.8,0.5-1.5,0.1-2.2c-1.4,3.1-5.3,6.1-4.3,9.2
			C95.1,59.7,95.8,58.8,96.4,57.9L96.4,57.9z M62.3,89.4c-1.7,0.9-3,3.2-2.9,4.5C61.2,92.8,62.4,90.9,62.3,89.4L62.3,89.4z
			 M132.7,20.8c-4.7,2.3-9.1,6.9-8.3,10.9c0,0,0.1-0.1,0.1-0.1C126.1,27.9,129.6,24.4,132.7,20.8L132.7,20.8z M100.2,54.4
			c-0.3,0.1-0.5,0.5-0.4,0.7C100.1,54.9,100.2,54.7,100.2,54.4L100.2,54.4z M150.2,6.4c-3.3-0.6-6.7-2.5-10.1,0.4
			C143.4,6.8,147,7,150.2,6.4L150.2,6.4z M100.6,53.1c0,0.4-0.5,0.7-0.3,1C100.7,53.8,101,53,100.6,53.1L100.6,53.1z M126.5,23.8
			c5.6-5.1,11.2-6.7,16.9-11.1C138.3,14.3,127.2,17.1,126.5,23.8L126.5,23.8z M98.2,54.9c-0.4,0.4-0.8,1.1-1,1.7
			C97.7,56.2,98.4,55.4,98.2,54.9L98.2,54.9z M151.7,2.6C153.4,3.2,153.5,1.7,151.7,2.6L151.7,2.6z M56.6,90.2
			c-1.9,1.8-2.7,4-1.9,6.2C56,94.6,55.9,92.2,56.6,90.2L56.6,90.2z M24.3,108c1.6,4,2.8,8.2,5.7,12.1
			C28.2,116.2,27.2,111.6,24.3,108L24.3,108z M132.8,12c4.6-1.7,9.3-2.8,14-4.1C142.2,7.6,137.1,7.3,132.8,12L132.8,12z M63,84
			c-0.8,1.4-1.7,2.9-1.7,4.3C63.2,87.6,63.3,85.2,63,84L63,84z M100.6,48.4c-1,1-0.7,2-0.6,2.9C100.3,50.4,101.1,49.4,100.6,48.4
			L100.6,48.4z M61.1,85c-2.5,1.9-3.4,4.8-3.7,7.2C60.1,89.8,60.5,87.4,61.1,85L61.1,85z M99.3,44c-1.5,2.1-1.8,4.7-2.6,7
			c-0.3,0.3-0.5-0.4-0.8-0.1c-1.6,1.3-1.4,3.1-1.1,4.6C97.9,51.7,100.1,47.8,99.3,44L99.3,44z M19.9,101.9
			c1.4,5.6,3.8,11.4,7.5,16.8c0.1-0.1,0.1-0.1,0.2-0.2C24.6,113,23.9,107.2,19.9,101.9L19.9,101.9z M55.3,87c-0.9,0.9-1,2.2-0.6,2.9
			C54.9,88.9,55.2,87.9,55.3,87L55.3,87z M59.8,81.6c-2.1,1.9-3.8,4.7-3.7,6.8C58.6,86.2,59,83.8,59.8,81.6L59.8,81.6z M63.6,78.5
			c-2,1.6-2.8,3.7-3.5,5.6C62.4,82.7,63.6,80.5,63.6,78.5L63.6,78.5z M96.2,42.6c-1.6,2.6-2.3,5.1-1.4,7.7
			C97.2,47.8,96.5,45.2,96.2,42.6L96.2,42.6z M98.3,36.7c-1.4,2.7-1.2,5.6-0.7,8.4C99.4,42.3,99.9,39.5,98.3,36.7L98.3,36.7z
			 M63.9,76c-0.5,0.3-1,1.1-0.9,1.5C63.8,77.2,64.2,76.5,63.9,76L63.9,76z M57.1,81.4c-0.4,1.5-3,2.5-2.3,4.2
			C55.8,84.2,57.1,82.8,57.1,81.4L57.1,81.4z M62,76.7c-1.8,0.9-3.5,2.8-3.5,4.5C60.1,79.7,61.9,78.4,62,76.7L62,76.7z M15.7,95.2
			c1.7,6.1,2.5,12.8,7.5,18.5C19.7,107.5,19.5,101.4,15.7,95.2L15.7,95.2z M57.8,76.1c-1.7,1.8-3,3.6-2.5,5.5
			C56.8,79.8,56.8,77.9,57.8,76.1L57.8,76.1z M64,72.7c-0.1,0.1-0.5,0.3-0.2,0.5C63.9,73.1,64.1,72.9,64,72.7L64,72.7z M63.8,71.3
			c-1,1.2-1.8,2.3-2.1,3.5C63.1,74.1,63.4,72.5,63.8,71.3L63.8,71.3z M60.3,74.4c-1.1,1.2-1.8,2.4-1.9,3.6
			C59.3,76.8,60.1,75.6,60.3,74.4L60.3,74.4z M92.3,25.9c1,5.4,2.7,11.3,2.5,16.9C97.2,37.2,95.8,31.6,92.3,25.9L92.3,25.9z
			 M87.1,19.7c4.4,7.5,3.2,14.9,6.4,22.4C93.3,34.8,93.7,26.8,87.1,19.7L87.1,19.7z M98.1,35.8c-0.5-1.3-1-3-2.3-4.1
			c0.3,1.8,0.6,3.8,1.2,5.6c0.1,0.1,0.2,0.1,0.2,0C97.3,36.7,97.7,36.1,98.1,35.8L98.1,35.8z M63.7,67.4c-2.5,1.7-5.2,4.1-6.1,6.7
			C59.9,72.2,62.7,69.9,63.7,67.4L63.7,67.4z M67.2,62.3c-0.5,0.1-1.1,1.1-0.8,1.5C67,63.4,67.4,62.9,67.2,62.3L67.2,62.3z M65.3,64
			c-0.3,0.2-1,0.6-0.7,1C65,65,66,64.5,65.3,64L65.3,64z M61.3,66.4c-1.8,1.6-4,3-4.2,5.1C58.7,69.7,60.6,68.2,61.3,66.4L61.3,66.4z
			 M18.6,108c-2.9-6.3-3.8-12.9-5.5-18.9c-0.1,6.4,2,12.5,5.2,19C18.5,108,18.5,108.1,18.6,108L18.6,108z M63.8,62.7
			c0.3,0.3,0.5,0,0.8-0.3C64.4,62.2,63.9,62.3,63.8,62.7L63.8,62.7z M60.9,63.7c-0.4,0.4-2.3,1.7-2.1,2.6
			C59.7,65.8,60.7,64.5,60.9,63.7L60.9,63.7z M83.2,16.6c3,6.1,3.1,12.4,7.1,18.4C90,29.1,88.4,21.7,83.2,16.6L83.2,16.6z M9,79.5
			c0.7-1,0-2.1-0.4-3.1c-0.7,5.3-0.5,11.2,1.5,16.8c-0.2,0.2-0.5-0.1-0.8,0.1c1.1,3.5,3.8,7.7,6.1,10.8C11,95.9,9.4,87.7,9,79.5
			L9,79.5z M77,12.9c2.1,3,3.7,6.4,6.1,8.8c-0.3,0.4-0.6-0.1-1,0.3c0.6,1.6,1.4,3.1,1.3,4.6c0.9,0.7,1.9,2,2.7,2.7
			C85.2,24.1,83.3,15.5,77,12.9L77,12.9z M10.5,82.9c0.1,3.7,0.8,8.1,2.2,11.6C11.4,90.6,12.3,86.8,10.5,82.9L10.5,82.9z M75.5,16.2
			c0.3,3.4,3.4,6,6.5,8.8C81.7,22,79.1,18.2,75.5,16.2L75.5,16.2z M7.3,67.1c-1.6,7.4-3.2,15.4,0.6,22.5C6,82.1,8.1,74.6,7.3,67.1
			L7.3,67.1z M70.7,10.4c2.2,2.7,5,5.2,7.7,6.7C76.9,14,73.9,10.3,70.7,10.4L70.7,10.4z M75.5,19.8c0.3-2.5-3.6-4.5-5.6-5
			C70.3,17.6,73.2,18.8,75.5,19.8L75.5,19.8z M67.9,12c1.6,1.9,3.7,2.6,5.6,3.2C72,13.4,69.7,12.6,67.9,12L67.9,12z M4.6,81.1
			C4.3,72.5,7.7,64,7.6,55.4C5.1,63.8,1.4,72.9,4.6,81.1L4.6,81.1z M69.7,16.7c-0.4-1.2-1.4-2.3-2.2-3.4c-6.5-2.6-13.4-5.7-19.9-3.3
			c7.3,0.8,14.9,2.5,22,6.8C69.6,16.9,69.6,16.8,69.7,16.7L69.7,16.7z M66.1,16.1c0,0,0-0.1,0-0.2c-8.6-3.3-17.6-6.9-26.5-4
			C48.4,12.3,57.4,14.7,66.1,16.1L66.1,16.1z M64.7,9.3c1.9,1.4,3.7,1.9,5.6,2.4C68.8,9.6,66.6,8.8,64.7,9.3L64.7,9.3z M3.5,62.5
			C1.7,58.9,3,54.9,4,51.2c-1.5,1.3-1.8,4.6-2.2,6.7c-0.8,4.8-0.9,11.6,0.6,15.7C2.7,69.9,2.9,66.2,3.5,62.5L3.5,62.5z M63.7,10.7
			c0.5,0.4,0.9,0.9,1.5,0.5C64.9,10.8,64.1,10.6,63.7,10.7L63.7,10.7z M62.3,9c0.1,0.2,0.3,0.3,0.5,0.2C62.7,8.9,62.5,8.9,62.3,9
			L62.3,9z M33.2,14.9c6.8-1.2,13.5,1.5,20.3,0C46.7,13.8,40.1,11.5,33.2,14.9L33.2,14.9z M8.5,46.9c-4.1,4.1-5,9.8-4.7,13.9
			C5.1,56.2,6.8,51.6,8.5,46.9L8.5,46.9z M39.2,15.8c0.1,0.4,0.4,0.7,0.1,0.9c-0.7,0.3-1.3-0.1-2,0.3c2.9,0.9,6,0.6,9-0.7
			C44,15.6,41.6,15.8,39.2,15.8L39.2,15.8z M38.6,18.4c-0.2-0.1-0.6,0.2-0.6,0.4C38.2,19,38.7,18.8,38.6,18.4L38.6,18.4z M15.6,30.5
			c7.4-5.3,15-8.5,22.1-11.5C30.4,20.3,22.1,23.8,15.6,30.5L15.6,30.5z M13.1,39.1c-2.6,1.8-4.3,4.3-4.9,6.5
			C10.9,44.4,12.5,41.1,13.1,39.1L13.1,39.1z M5.6,47c-0.6,0.5-1.6,0.9-1.4,1.9C4.8,48.7,5.9,47.7,5.6,47L5.6,47z M21.3,24.4
			c4.3-2.3,8.8-4.3,13.2-6.1C30.2,17.8,25.5,20.7,21.3,24.4L21.3,24.4z M19.3,32.2c-5.1,2.9-12.5,8.2-14,13.5
			C8.8,40.2,15.4,36.7,19.3,32.2L19.3,32.2z M25.5,25.7C20.4,28.3,12,32.9,9.1,38.4C14.4,33.1,21.1,31.5,25.5,25.7L25.5,25.7z
			 M35.1,15.9c-2.2,0.4-4.4,0-6.6,1.5C30.7,17.3,33.4,16.7,35.1,15.9L35.1,15.9z M14.3,30.3c-1.1,0.9-1.8,1.9-2.3,2.9
			C13,33.1,14.9,31.3,14.3,30.3L14.3,30.3z M16.3,28.4c3.6-3.2,6.3-7.2,10.7-9.3C23.2,19.1,18.4,25,16.3,28.4L16.3,28.4z"/>
	</g>
</g>
</svg>
